<svg width="21" height="14" viewBox="0 0 21 14" fill="none" xmlns="http://www.w3.org/2000/svg">
<path d="M19.88 0.186666C20.0667 0.373333 20.16 0.591111 20.16 0.84C20.16 1.08889 20.0667 1.30667 19.88 1.49333L7.65333 13.72C7.46667 13.9067 7.24889 14 7 14C6.75111 14 6.53333 13.9067 6.34667 13.72L0.28 7.56C0.0933333 7.43556 0 7.24889 0 7C0 6.75111 0.0777778 6.53333 0.233333 6.34667C0.388889 6.16 0.591111 6.06667 0.84 6.06667C1.08889 6.06667 1.30667 6.16 1.49333 6.34667L7 11.8533L18.5733 0.186666C18.76 0.0622225 18.9778 0 19.2267 0C19.4756 0 19.6933 0.0622225 19.88 0.186666Z" fill="white" fill-opacity="0.2"/>
</svg>
