<svg width="16" height="16" viewBox="0 0 16 16" fill="none" xmlns="http://www.w3.org/2000/svg">
<mask id="mask0_1_979" style="mask-type:luminance" maskUnits="userSpaceOnUse" x="0" y="-1" width="16" height="17">
<path d="M16 -0.00878906H0V15.9912H16V-0.00878906Z" fill="white"/>
</mask>
<g mask="url(#mask0_1_979)">
<path d="M12.3636 15.9912H3.63636C2.67229 15.9901 1.74804 15.6066 1.06634 14.9249C0.384641 14.2432 0.00115481 13.319 0 12.3549V5.08216C0.00115481 4.11809 0.384641 3.19384 1.06634 2.51214C1.74804 1.83044 2.67229 1.44695 3.63636 1.4458H12.3636C13.3277 1.44695 14.252 1.83044 14.9337 2.51214C15.6154 3.19384 15.9988 4.11809 16 5.08216V12.3549C15.9988 13.319 15.6154 14.2432 14.9337 14.9249C14.252 15.6066 13.3277 15.9901 12.3636 15.9912ZM3.63636 2.90035C3.05789 2.90092 2.50327 3.13098 2.09422 3.54002C1.68518 3.94907 1.45512 4.50369 1.45455 5.08216V12.3549C1.45512 12.9334 1.68518 13.488 2.09422 13.897C2.50327 14.3061 3.05789 14.5361 3.63636 14.5367H12.3636C12.9421 14.5361 13.4967 14.3061 13.9058 13.897C14.3148 13.488 14.5449 12.9334 14.5455 12.3549V5.08216C14.5449 4.50369 14.3148 3.94907 13.9058 3.54002C13.4967 3.13098 12.9421 2.90092 12.3636 2.90035H3.63636Z" fill="#FA8922" fill-opacity="0.6"/>
<path d="M8.0004 2.90015C7.90488 2.90025 7.81029 2.88148 7.72205 2.84491C7.63381 2.80834 7.55366 2.7547 7.48622 2.68706L6.03167 1.23252C5.89919 1.09535 5.82589 0.911642 5.82754 0.720953C5.8292 0.530265 5.90569 0.347856 6.04053 0.213013C6.17537 0.078171 6.35778 0.00168453 6.54847 2.74931e-05C6.73916 -0.00162955 6.92287 0.0716754 7.06003 0.204154L8.0004 1.14452L8.94076 0.204154C9.07793 0.0716754 9.26164 -0.00162955 9.45233 2.74931e-05C9.64301 0.00168453 9.82542 0.078171 9.96027 0.213013C10.0951 0.347856 10.1716 0.530265 10.1733 0.720953C10.1749 0.911642 10.1016 1.09535 9.96913 1.23252L8.51458 2.68706C8.44713 2.7547 8.36699 2.80834 8.27875 2.84491C8.19051 2.88148 8.09591 2.90025 8.0004 2.90015ZM3.63676 10.1729C3.46435 10.1725 3.29768 10.1108 3.16649 9.99901C3.0353 9.8871 2.94813 9.73225 2.92052 9.56206C2.89291 9.39187 2.92666 9.21741 3.01576 9.0698C3.10485 8.92218 3.24349 8.81103 3.40694 8.75615L7.77058 7.30161C7.87981 7.26457 7.99633 7.25429 8.11035 7.27163C8.22437 7.28897 8.33257 7.33342 8.42585 7.40124C8.51923 7.46867 8.59528 7.55729 8.64775 7.65983C8.70022 7.76236 8.72761 7.87588 8.72767 7.99106V8.43615L12.1342 7.30161C12.3159 7.24554 12.5122 7.26281 12.6813 7.34973C12.8503 7.43665 12.9786 7.5863 13.0387 7.76665C13.0988 7.94699 13.0859 8.1437 13.0027 8.31464C12.9196 8.48558 12.7728 8.61718 12.5939 8.68124L8.23022 10.1358C8.12088 10.1724 8.00441 10.1824 7.89043 10.1651C7.77644 10.1477 7.66822 10.1035 7.57471 10.0361C7.48119 9.96866 7.40507 9.87994 7.35263 9.77726C7.30019 9.67458 7.27294 9.5609 7.27313 9.44561V9.00052L3.86658 10.1351C3.79251 10.16 3.7149 10.1727 3.63676 10.1729Z" fill="#FA8922" fill-opacity="0.6"/>
</g>
</svg>
