<svg width="12" height="20" viewBox="0 0 12 20" fill="none" xmlns="http://www.w3.org/2000/svg">
<path fill-rule="evenodd" clip-rule="evenodd" d="M0.174056 0.285374C0.237945 0.207059 0.317304 0.141097 0.406955 0.092665C0.495575 0.0442331 0.594499 0.0143511 0.695484 0.0040464C0.79647 -0.00625826 0.898478 0.00303154 0.996372 0.0329151C1.09324 0.0617681 1.18391 0.110193 1.26223 0.174082L11.4329 8.45593C11.5123 8.51982 11.5772 8.59917 11.6256 8.68779C11.6741 8.77744 11.7039 8.87533 11.7143 8.97632C11.7256 9.07833 11.7153 9.18034 11.6864 9.2772C11.6565 9.3751 11.6091 9.46578 11.5442 9.5441L3.26341 19.7148C3.13357 19.8735 2.94601 19.9745 2.74198 19.9961C2.53795 20.0167 2.33392 19.9559 2.1742 19.8261C2.01551 19.6962 1.91451 19.5087 1.89287 19.3047C1.87226 19.1007 1.93307 18.8966 2.06291 18.7379L9.85735 9.16695L0.285348 1.37458C0.207033 1.30966 0.141102 1.23134 0.0926703 1.14169C0.0442384 1.05203 0.0143564 0.954141 0.00405173 0.853156C-0.00625294 0.75217 0.00300541 0.649132 0.0328889 0.552268C0.061742 0.455404 0.110167 0.36472 0.174056 0.285374Z" fill="white" fill-opacity="0.6"/>
</svg>
