<svg width="20" height="20" viewBox="0 0 20 20" fill="none" xmlns="http://www.w3.org/2000/svg">
<path d="M9.06667 6.06667L3.06667 12.9333C2.84445 13.2 2.74445 13.5 2.76667 13.8333C2.78889 14.1667 2.91112 14.4444 3.13334 14.6667C3.35556 14.8889 3.64445 15 4.00001 15H16C16.2222 15 16.4445 14.9333 16.6667 14.8C16.8889 14.6667 17.0444 14.4889 17.1333 14.2667C17.2222 14.0444 17.2556 13.8111 17.2333 13.5667C17.2111 13.3222 17.1111 13.1111 16.9333 12.9333L10.9333 6.06667C10.7111 5.8 10.4 5.66667 10 5.66667C9.60001 5.66667 9.28889 5.8 9.06667 6.06667Z" fill="white" fill-opacity="0.2"/>
</svg>
