<svg width="13" height="12" viewBox="0 0 13 12" fill="none" xmlns="http://www.w3.org/2000/svg">
<path d="M6.41149 0.76011C6.27825 0.76011 6.14501 0.76011 6.01177 0.76011V1.71682e-05H6.45147L6.41149 0.76011ZM7.89045 1.12015C7.65062 1.01347 7.41079 0.933465 7.17096 0.880125L7.33085 0.160037C7.62397 0.213376 7.90378 0.293386 8.17026 0.400067L7.89045 1.12015ZM8.92972 1.64022C8.82313 1.56021 8.71654 1.49353 8.60995 1.44019L8.9697 0.76011C9.23617 0.92013 9.47601 1.09348 9.68919 1.28017L9.2495 1.88025L8.92972 1.64022ZM10.2888 2.96038C10.1555 2.77369 9.99564 2.57366 9.80911 2.3603L10.3687 1.88025C10.5552 2.09361 10.7418 2.3203 10.9283 2.56033L10.2888 2.96038ZM10.8484 4.00051C10.7951 3.86716 10.7418 3.74714 10.6885 3.64046L11.368 3.32042C11.5012 3.56045 11.6078 3.82715 11.6878 4.12052L11.0083 4.36055L10.8484 4.00051ZM11.2481 5.88073C11.2481 5.61404 11.2214 5.36067 11.1682 5.12064L11.9276 4.96062C11.9809 5.25399 12.0076 5.54736 12.0076 5.84073L11.2481 5.88073ZM11.1682 7.04088C11.1948 6.90753 11.2081 6.77418 11.2081 6.64083L11.9676 6.72084C11.9409 7.01421 11.8876 7.30758 11.8077 7.60094L11.0482 7.40092L11.1682 7.04088ZM10.4487 8.80109C10.5819 8.58773 10.7018 8.36104 10.8084 8.12101L11.4879 8.44105C11.3813 8.70775 11.2481 8.96111 11.0882 9.20114L10.4487 8.80109ZM9.72916 9.7212C9.80911 9.61452 9.88905 9.52118 9.96899 9.44117L10.5686 9.92123L10.2488 10.2413L9.72916 9.7212ZM6.01177 0.76011C5.23898 0.76011 4.4995 0.92013 3.79333 1.24017C3.08716 1.56021 2.48758 2.02026 1.9946 2.62034C1.50161 3.22041 1.15519 3.89382 0.955329 4.64058C0.755469 5.38734 0.722159 6.14077 0.855399 6.90086C0.988638 7.66095 1.2751 8.36104 1.71479 9.00112C2.15449 9.64119 2.71409 10.1546 3.39361 10.5413C4.07314 10.928 4.79929 11.1547 5.57208 11.2214C6.34487 11.2881 7.09102 11.1947 7.81051 10.9414C8.53 10.688 9.16956 10.2813 9.72916 9.7212L10.2488 10.2413C9.60925 10.8813 8.87643 11.3481 8.05034 11.6414C7.22426 11.9348 6.37152 12.0482 5.49214 11.9815C4.61276 11.9148 3.78667 11.6548 3.01388 11.2014C2.24109 10.748 1.60154 10.1613 1.09523 9.44117C0.588919 8.72108 0.25582 7.92765 0.0959326 7.06088C-0.063955 6.19411 -0.0239831 5.32733 0.215848 4.46056C0.45568 3.59379 0.862061 2.82036 1.43499 2.14028C2.00792 1.46019 2.68744 0.933465 3.47356 0.560086C4.25967 0.186706 5.10574 1.71682e-05 6.01177 1.71682e-05V0.76011ZM5.65203 2.24029C5.75862 2.24029 5.84523 2.2803 5.91184 2.3603C5.97846 2.44031 6.01177 2.53366 6.01177 2.64034V6.52081L8.45006 7.92098C8.53 7.97432 8.5833 8.04767 8.60995 8.14101C8.6366 8.23436 8.62327 8.3277 8.56998 8.42104C8.51668 8.51439 8.4434 8.5744 8.35013 8.60107C8.25686 8.62774 8.17026 8.6144 8.09031 8.56106L5.45217 7.08088C5.31893 7.00087 5.25231 6.89419 5.25231 6.76084V2.64034C5.25231 2.53366 5.29228 2.44031 5.37222 2.3603C5.45217 2.2803 5.54544 2.24029 5.65203 2.24029Z" fill="#FA8922"/>
</svg>
