<svg width="15" height="19" viewBox="0 0 15 19" fill="none" xmlns="http://www.w3.org/2000/svg">
<path d="M12.1875 6.5625V4.6875C12.1875 2.0625 10.125 0 7.50001 0C4.875 0 2.8125 2.0625 2.8125 4.6875V6.5625C1.21875 6.5625 0 7.78126 0 9.37501V15.9375C0 17.5313 1.21875 18.75 2.8125 18.75H12.1875C13.7813 18.75 15 17.5313 15 15.9375V9.37501C15 7.78126 13.7813 6.5625 12.1875 6.5625ZM4.6875 4.6875C4.6875 3.09375 5.90625 1.875 7.50001 1.875C9.09376 1.875 10.3125 3.09375 10.3125 4.6875V6.5625H4.6875V4.6875ZM8.53126 12.6563L8.43751 12.75V14.0625C8.43751 14.625 8.06251 15 7.50001 15C6.9375 15 6.5625 14.625 6.5625 14.0625V12.75C6 12.1875 5.90625 11.3438 6.46875 10.7813C7.03125 10.2188 7.87501 10.125 8.43751 10.6875C9.00001 11.1563 9.09376 12.0938 8.53126 12.6563Z" fill="white" fill-opacity="0.6"/>
</svg>
