<svg width="20" height="20" viewBox="0 0 20 20" fill="none" xmlns="http://www.w3.org/2000/svg">
<g clip-path="url(#clip0_1_856)">
<path d="M1.26667 3.53335C2.68889 2.91113 4.08889 2.53335 5.46667 2.40002C7.28889 2.22224 8.6 2.53335 9.4 3.33335V15.5334C8.37778 14.9556 7.02222 14.7556 5.33333 14.9334C4.04444 15.0667 2.68889 15.4 1.26667 15.9334V3.53335ZM10.6 3.33335C11.4 2.53335 12.7111 2.22224 14.5333 2.40002C15.9111 2.53335 17.3111 2.91113 18.7333 3.53335V15.9334C17.3111 15.4 15.9556 15.0667 14.6667 14.9334C12.9778 14.7556 11.6222 14.9556 10.6 15.5334V3.33335ZM10 2.20002C8.93333 1.31113 7.37778 0.977797 5.33333 1.20002C4.48889 1.28891 3.57778 1.46668 2.6 1.73335C1.8 1.95557 1.04444 2.22224 0.333333 2.53335C0.111111 2.66669 0 2.86668 0 3.13335V16.8667C0 17.0889 0.1 17.2667 0.3 17.4C0.5 17.5334 0.688889 17.5556 0.866667 17.4667C1.53333 17.1556 2.22222 16.8889 2.93333 16.6667C3.82222 16.4 4.66667 16.2445 5.46667 16.2C7.42222 15.9778 8.77778 16.3334 9.53333 17.2667C9.66667 17.4 9.82222 17.4667 10 17.4667C10.1778 17.4667 10.3333 17.4 10.4667 17.2667C11.2222 16.3334 12.5778 15.9778 14.5333 16.2C15.3333 16.2445 16.1778 16.4 17.0667 16.6667C17.8222 16.8889 18.5111 17.1556 19.1333 17.4667C19.3111 17.5556 19.5 17.5334 19.7 17.4C19.9 17.2667 20 17.0889 20 16.8667V3.13335C20 2.86668 19.8889 2.66669 19.6667 2.53335C18.9556 2.22224 18.2 1.95557 17.4 1.73335C16.4222 1.46668 15.5111 1.28891 14.6667 1.20002C12.6222 0.977797 11.0667 1.31113 10 2.20002Z" fill="white"/>
</g>
<defs>
<clipPath id="clip0_1_856">
<rect width="20" height="20" fill="white" transform="matrix(1 0 0 -1 0 20)"/>
</clipPath>
</defs>
</svg>
