<svg width="18" height="16" viewBox="0 0 18 16" fill="none" xmlns="http://www.w3.org/2000/svg">
<g clip-path="url(#clip0_1_66)">
<path d="M9.5389 15.6803C13.6409 15.6803 16.9662 12.2426 16.9662 8.00031C16.9662 3.75803 13.6409 0.320312 9.5389 0.320312H8.45312V15.6803H9.5389Z" fill="#CC8232"/>
<path d="M8.5932 15.6803C12.7685 15.6803 16.1532 12.2419 16.1532 8.00031C16.1532 3.75877 12.7685 0.320312 8.5932 0.320312C4.41793 0.320312 1.0332 3.75877 1.0332 8.00031C1.0332 12.2419 4.41793 15.6803 8.5932 15.6803Z" fill="#DFC805"/>
<path d="M8.5933 14.0919C11.9057 14.0919 14.5909 11.364 14.5909 7.99905C14.5909 4.63409 11.9057 1.90625 8.5933 1.90625C5.28092 1.90625 2.5957 4.63409 2.5957 7.99905C2.5957 11.364 5.28092 14.0919 8.5933 14.0919Z" fill="#DBB106"/>
<g style="mix-blend-mode:screen" opacity="0.2">
<path d="M2.91797 6.02057L10.5395 13.7631C11.3042 13.4961 12.0078 13.0746 12.6079 12.5241L4.13801 3.91936C3.59592 4.52896 3.18091 5.24371 2.91797 6.02057ZM14.4281 9.40837L7.20467 2.07031C6.73967 2.18207 6.28962 2.35028 5.86421 2.57134L13.9349 10.7699C14.1524 10.3378 14.318 9.88068 14.4281 9.40837Z" fill="#E0E0E0"/>
</g>
<g style="mix-blend-mode:screen" opacity="0.5">
<path d="M1.42128 8.00031C1.42128 3.82477 4.70214 0.427468 8.7876 0.322872C8.72292 0.321166 8.65812 0.320312 8.5932 0.320312C4.4172 0.320312 1.0332 3.75803 1.0332 8.00031C1.0332 12.2426 4.4172 15.6803 8.5932 15.6803C8.65824 15.6803 8.72304 15.6795 8.7876 15.6778C4.70214 15.5732 1.42128 12.1759 1.42128 8.00031Z" fill="#E0E0E0"/>
</g>
<g style="mix-blend-mode:screen">
<path d="M11.1936 2.74136C14.0916 4.48655 15.0501 8.28869 13.3322 11.2338C12.6566 12.3961 11.6244 13.3013 10.3939 13.8106C11.8048 13.3618 13.0019 12.3976 13.7538 11.1043C15.4424 8.20934 14.5011 4.47192 11.6516 2.75654C10.7578 2.21687 9.74075 1.92376 8.70117 1.90625C9.58195 1.99687 10.4326 2.28189 11.1936 2.74136Z" fill="#E0E0E0"/>
</g>
<path d="M5.53654 13.2436C6.81616 14.0166 8.33378 14.2763 9.7921 13.9721C8.52509 14.0985 7.25148 13.8101 6.15718 13.1492C3.30688 11.4338 2.36566 7.6964 4.05442 4.80196C4.48062 4.06927 5.05356 3.43569 5.73613 2.94224C6.4187 2.4488 7.19568 2.1065 8.01676 1.9375C6.17878 2.12036 4.4479 3.15825 3.43432 4.89576C1.7461 7.79076 2.68696 11.5282 5.53654 13.2436Z" fill="#CC8232"/>
<path d="M11.6158 11.8186L10.2001 9.56194H12.2331V8.71001H5.56641V9.56286H7.59933L6.18363 11.8186H7.23717L8.89965 9.16899L10.5623 11.8186H11.6158ZM12.2331 7.88058V7.02772H10.2417L11.6405 4.79688H10.5785L8.89965 7.48834L7.22079 4.79688H6.15879L7.55811 7.02772H5.56641V7.88899L12.2331 7.88058Z" fill="#CC8232"/>
<path d="M11.6139 11.8201L10.1982 9.56267H12.2311V8.70983H5.56445V9.56267H7.59737L6.18167 11.8201H7.23557L8.89769 9.16971L10.5604 11.8201H11.6139ZM12.2311 7.88203V7.02919H10.2394L11.6386 4.79688H10.5766L8.89769 7.48907L7.21883 4.79688H6.15683L7.55597 7.02919H5.56445V7.88971L12.2311 7.88131V7.88203Z" fill="#CC8232"/>
<path d="M11.6119 11.8201L10.1962 9.56267H12.2292V8.70983H5.5625V9.56267H7.59542L6.17972 11.8201H7.23326L8.89574 9.16971L10.5584 11.8201H11.6119ZM12.2292 7.88203V7.02919H10.2375L11.6366 4.79688H10.5746L8.89574 7.48925L7.21742 4.79688H6.15542L7.55456 7.02919H5.5625V7.89045L12.2292 7.88203Z" fill="#CC8232"/>
<path d="M11.6105 11.8201L10.1955 9.56267H12.2284V8.70983H5.5625V9.56267H7.5947L6.179 11.8201H7.23254L8.89502 9.16971L10.5577 11.8201H11.6105ZM12.2277 7.88203V7.02919H10.2367L11.6359 4.79688H10.5739L8.89502 7.48907L7.21616 4.79688H6.15416L7.5533 7.02919H5.5625V7.89045L12.2292 7.88203H12.2277Z" fill="#CC8232"/>
<path d="M11.6061 11.8201L10.1904 9.56267H12.2233V8.70983H5.55664V9.56267H7.58956L6.17386 11.8201H7.2274L8.88916 9.16971L10.5518 11.8201H11.6061ZM12.2233 7.88203V7.02919H10.2316L11.6307 4.79688H10.5687L8.88916 7.48907L7.21102 4.79688H6.14902L7.54816 7.02919H5.55664V7.89045L12.2233 7.88203Z" fill="#CC8232"/>
<path d="M11.6061 11.8122L10.1904 9.55487H12.2233V8.70202H5.55664V9.55487H7.58956L6.17386 11.8122H7.2274L8.88988 9.16191L10.5525 11.8122H11.6061ZM12.2233 7.87423V7.02138H10.2316L11.6307 4.78906H10.5687L8.88988 7.48127L7.21102 4.78906H6.14902L7.54816 7.02138H5.55664V7.88264L12.2233 7.87423Z" fill="#CC8232"/>
<path d="M11.6041 11.8122L10.1884 9.55505H12.2208V8.70202H5.55469V9.55505H7.58761L6.17281 11.8122H7.22635L8.88793 9.16191L10.5506 11.8122H11.6041ZM12.2208 7.87423V7.02138H10.2296L11.6288 4.78906H10.5668L8.88793 7.48127L7.20907 4.78906H6.14707L7.54621 7.02138H5.55469V7.88264L12.2208 7.87423Z" fill="#CC8232"/>
<path d="M11.6022 11.8122L10.1867 9.55487H12.2194V8.70202H5.55273V9.55487H7.58565L6.16995 11.8122H7.22349L8.88597 9.16191L10.5486 11.8122H11.6022ZM12.2194 7.87459V7.02138H10.2277L11.6267 4.78906H10.5647L8.88597 7.48127L7.20711 4.78906H6.14511L7.54425 7.02138H5.55273V7.88264L12.2194 7.87459Z" fill="#CC8232"/>
<path d="M11.6022 11.8044L10.1865 9.54706H12.2194V8.69421H5.55273V9.54706H7.58565L6.16995 11.8044H7.22349L8.88597 9.1541L10.5485 11.8044H11.6022ZM12.2194 7.86642V7.01357H10.2277L11.6268 4.78125H10.5648L8.88597 7.47346L7.20711 4.78125H6.14511L7.54425 7.01357H5.55273V7.87483L12.2194 7.86642Z" fill="#CC8232"/>
<path d="M11.5983 11.8044L10.1826 9.54706H12.2155V8.69421H5.54883V9.54706H7.58175L6.16605 11.8044H7.21959L8.88207 9.1541L10.5447 11.8044H11.5983ZM12.2155 7.86642V7.01357H10.2238L11.6229 4.78125H10.5609L8.88207 7.47346L7.20321 4.78125H6.14121L7.54035 7.01357H5.54883V7.87483L12.2155 7.86642Z" fill="#CC8232"/>
<path d="M11.5983 11.803L10.1826 9.54632H12.2155V8.69439H5.54883V9.54724H7.58175L6.16605 11.803H7.21959L8.88207 9.15336L10.5447 11.803H11.5983ZM12.2155 7.86495V7.01211H10.2241L11.6229 4.78125H10.5609L8.88207 7.47272L7.20321 4.78125H6.14121L7.54053 7.01211H5.54883V7.87336L12.2155 7.86495Z" fill="#CC8232"/>
<path d="M11.5963 11.8044L10.1806 9.54706H12.2135V8.69421H5.54688V9.54706H7.57978L6.16409 11.8044H7.21799L8.88011 9.1541L10.5428 11.8044H11.5963ZM12.2135 7.86642V7.01357H10.2218L11.621 4.78125H10.559L8.88011 7.47346L7.20126 4.78125H6.13926L7.53839 7.01357H5.54688V7.8741L12.2135 7.86568V7.86642Z" fill="#CC8232"/>
<path d="M11.5944 11.8044L10.1787 9.54706H12.2116V8.69421H5.54492V9.54706H7.57784L6.16214 11.8044H7.21568L8.87816 9.1541L10.5408 11.8044H11.5944ZM12.2116 7.86642V7.01357H10.2199L11.619 4.78125H10.557L8.87816 7.47364L7.19984 4.78125H6.13784L7.53698 7.01357H5.54492V7.87483L12.2116 7.86642Z" fill="#CC8232"/>
<path d="M11.5929 11.7966L10.1779 9.53924H12.2109V8.6864H5.54492V9.53924H7.57712L6.16142 11.7966H7.21496L8.87744 9.14628L10.5401 11.7966H11.5929ZM12.2101 7.8586V7.00576H10.2192L11.6183 4.77344H10.5563L8.87744 7.46564L7.19858 4.77344H6.13658L7.53572 7.00576H5.54492V7.86701L12.2116 7.8586H12.2101Z" fill="#CC8232"/>
<path d="M11.5885 11.7966L10.1728 9.53924H12.2057V8.6864H5.53906V9.53924H7.57198L6.15628 11.7966H7.20982L8.87158 9.14628L10.5342 11.7966H11.5885ZM12.2057 7.8586V7.00576H10.214L11.6132 4.77344H10.5512L8.87158 7.46564L7.19344 4.77344H6.13144L7.53058 7.00576H5.53906V7.86701L12.2057 7.8586Z" fill="#CC8232"/>
<path d="M11.5885 11.7966L10.1728 9.53924H12.2057V8.6864H5.53906V9.53924H7.57198L6.15628 11.7966H7.20982L8.8723 9.14628L10.535 11.7966H11.5885ZM12.2057 7.8586V7.00576H10.214L11.6132 4.77344H10.5512L8.8723 7.46564L7.19344 4.77344H6.13144L7.53058 7.00576H5.53906V7.86702L12.2057 7.8586Z" fill="#CC8232"/>
<path d="M11.5865 11.7888L10.1708 9.53162H12.2032V8.67859H5.53711V9.53162H7.57003L6.15523 11.7888H7.20877L8.87035 9.13847L10.533 11.7888H11.5865ZM12.2032 7.85079V6.99796H10.2121L11.6112 4.76562H10.5492L8.87035 7.45783L7.19149 4.76562H6.12949L7.52863 6.99796H5.53711V7.85921L12.2032 7.85079Z" fill="#CC8232"/>
<path d="M11.5846 11.7888L10.1691 9.53144H12.2018V8.67859H5.53516V9.53144H7.56808L6.15238 11.7888H7.20592L8.8684 9.13847L10.5311 11.7888H11.5846ZM12.2018 7.85116V6.99795H10.2101L11.6091 4.76562H10.5471L8.8684 7.45783L7.18954 4.76562H6.12754L7.52668 6.99795H5.53516V7.85921L12.2018 7.85116Z" fill="#CC8232"/>
<path d="M11.5826 11.7888L10.1669 9.53144H12.1999V8.67859H5.5332V9.53144H7.56612L6.15042 11.7888H7.20396L8.86644 9.13847L10.5289 11.7888H11.5826ZM12.1999 7.85079V6.99795H10.2082L11.6073 4.76562H10.5453L8.86644 7.45783L7.18758 4.76562H6.12558L7.52472 6.99795H5.5332V7.85921L12.1999 7.85079Z" fill="#CC8232"/>
<path d="M11.5807 11.7888L10.165 9.53144H12.1979V8.67859H5.53125V9.53144H7.56417L6.14847 11.7888H7.20201L8.86449 9.13847L10.5271 11.7888H11.5807ZM12.1979 7.85079V6.99796H10.2062L11.6054 4.76562H10.5434L8.86449 7.45783L7.18563 4.76562H6.12363L7.52277 6.99796H5.53125V7.85921L12.1979 7.85079Z" fill="#CC8232"/>
<path d="M11.5787 11.7873L10.163 9.5307H12.196V8.67877H5.5293V9.53162H7.56222L6.14652 11.7873H7.20006L8.86254 9.13775L10.5252 11.7873H11.5787ZM12.196 7.84934V6.99648H10.2046L11.6034 4.76562H10.5414L8.86254 7.4571L7.18368 4.76562H6.12168L7.521 6.99648H5.5293V7.85774L12.196 7.84934Z" fill="#CC8232"/>
<path d="M11.5787 11.7888L10.163 9.53144H12.196V8.67859H5.5293V9.53144H7.56222L6.14652 11.7888H7.20042L8.86254 9.13847L10.5252 11.7888H11.5787ZM12.196 7.85079V6.99796H10.2043L11.6034 4.76562H10.5414L8.86254 7.45783L7.18368 4.76562H6.12168L7.52082 6.99796H5.5293V7.85848L12.196 7.85007V7.85079Z" fill="#CC8232"/>
<path d="M11.5768 11.781L10.1611 9.52362H12.194V8.67077H5.52734V9.52362H7.56026L6.14456 11.781H7.1981L8.86058 9.13066L10.5232 11.781H11.5768ZM12.194 7.84298V6.99013H10.2023L11.6014 4.75781H10.5394L8.86058 7.4502L7.18226 4.75781H6.12026L7.5194 6.99013H5.52734V7.85139L12.194 7.84298Z" fill="#CC8232"/>
<path d="M11.5753 11.781L10.1604 9.52362H12.1933V8.67077H5.52734V9.52362H7.55954L6.14384 11.781H7.19738L8.85986 9.13066L10.5225 11.781H11.5753ZM12.1926 7.84298V6.99013H10.2016L11.6007 4.75781H10.5387L8.85986 7.45002L7.181 4.75781H6.119L7.51814 6.99013H5.52734V7.85139L12.194 7.84298H12.1926Z" fill="#CC8232"/>
<path d="M11.5709 11.781L10.1552 9.52362H12.1881V8.67077H5.52148V9.52362H7.5544L6.1387 11.781H7.19224L8.854 9.13066L10.5167 11.781H11.5709ZM12.1881 7.84298V6.99013H10.1964L11.5956 4.75781H10.5336L8.854 7.45002L7.17586 4.75781H6.11386L7.513 6.99013H5.52148V7.85139L12.1881 7.84298Z" fill="#CC8232"/>
<path d="M11.569 11.7732L10.1533 9.51581H12.1862V8.66296H5.51953V9.51581H7.55245L6.13675 11.7732H7.19029L8.85277 9.12285L10.5154 11.7732H11.569ZM12.1862 7.83517V6.98232H10.1945L11.5936 4.75H10.5316L8.85277 7.44221L7.17391 4.75H6.11191L7.51105 6.98232H5.51953V7.84358L12.1862 7.83517Z" fill="#CC8232"/>
<path d="M11.569 11.7732L10.1533 9.51599H12.1857V8.66296H5.51953V9.51599H7.55245L6.13765 11.7732H7.19119L8.85277 9.12285L10.5154 11.7732H11.569ZM12.1857 7.83517V6.98232H10.1945L11.5936 4.75H10.5316L8.85277 7.44221L7.17391 4.75H6.11191L7.51105 6.98232H5.51953V7.84358L12.1857 7.83517Z" fill="#CC8232"/>
<path d="M11.567 11.7732L10.1515 9.51581H12.1842V8.66296H5.51758V9.51581H7.5505L6.1348 11.7732H7.18834L8.85082 9.12285L10.5135 11.7732H11.567ZM12.1842 7.83553V6.98232H10.1925L11.5915 4.75H10.5295L8.85082 7.44221L7.17196 4.75H6.10996L7.5091 6.98232H5.51758V7.84358L12.1842 7.83553Z" fill="#CC8232"/>
<path d="M11.5651 11.7732L10.1494 9.51581H12.1823V8.66296H5.51562V9.51581H7.54854L6.13285 11.7732H7.18639L8.84888 9.12285L10.5113 11.7732H11.5651ZM12.1823 7.83517V6.98232H10.1906L11.5897 4.75H10.5277L8.84888 7.44221L7.17002 4.75H6.10802L7.50716 6.98232H5.51562V7.84358L12.1823 7.83517Z" fill="#CC8232"/>
<path d="M11.5631 11.7732L10.1474 9.51581H12.1803V8.66296H5.51367V9.51581H7.54659L6.13089 11.7732H7.18443L8.84691 9.12285L10.5096 11.7732H11.5631ZM12.1803 7.83517V6.98232H10.1886L11.5878 4.75H10.5258L8.84691 7.44221L7.16805 4.75H6.10605L7.50519 6.98232H5.51367V7.84358L12.1803 7.83517Z" fill="#CC8232"/>
<path d="M11.5612 11.7717L10.1455 9.51507H12.1784V8.66314H5.51172V9.51599H7.54464L6.12894 11.7717H7.18248L8.84496 9.12211L10.5076 11.7717H11.5612ZM12.1784 7.8337V6.98086H10.187L11.5858 4.75H10.5238L8.84496 7.44147L7.1661 4.75H6.1041L7.50342 6.98086H5.51172V7.84211L12.1784 7.8337Z" fill="#CC8232"/>
<path d="M11.5612 11.7654L10.1455 9.50799H12.1784V8.65515H5.51172V9.50799H7.54464L6.12894 11.7654H7.18284L8.84496 9.11503L10.5076 11.7654H11.5612ZM12.1784 7.82735V6.97451H10.1867L11.5858 4.74219H10.5238L8.84496 7.43439L7.1661 4.74219H6.1041L7.50324 6.97451H5.51172V7.83503L12.1784 7.82662V7.82735Z" fill="#CC8232"/>
<path d="M11.5592 11.7654L10.1435 9.50799H12.1764V8.65515H5.50977V9.50799H7.54269L6.12699 11.7654H7.18053L8.84301 9.11503L10.5057 11.7654H11.5592ZM12.1764 7.82735V6.97451H10.1847L11.5839 4.74219H10.5219L8.84301 7.43458L7.16469 4.74219H6.10269L7.50183 6.97451H5.50977V7.83576L12.1764 7.82735Z" fill="#CC8232"/>
<path d="M11.5558 11.7654L10.1408 9.50799H12.1738V8.65515H5.50781V9.50799H7.54001L6.12431 11.7654H7.17785L8.84033 9.11503L10.503 11.7654H11.5558ZM12.173 7.82735V6.97451H10.1821L11.5812 4.74219H10.5192L8.84033 7.43439L7.16147 4.74219H6.09947L7.49861 6.97451H5.50781V7.83576L12.1745 7.82735H12.173Z" fill="#CC8232"/>
<path d="M11.5533 11.7576L10.1376 9.50017H12.1706V8.64733H5.50391V9.50017H7.53683L6.12113 11.7576H7.17467L8.83643 9.10721L10.4991 11.7576H11.5533ZM12.1706 7.81953V6.96669H10.1789L11.578 4.73438H10.516L8.83643 7.42657L7.15829 4.73438H6.09629L7.49543 6.96669H5.50391V7.82795L12.1706 7.81953Z" fill="#CC8232"/>
<path d="M11.5514 11.7576L10.1357 9.50017H12.1686V8.64733H5.50195V9.50017H7.53487L6.11917 11.7576H7.17271L8.83519 9.10721L10.4979 11.7576H11.5514ZM12.1686 7.81953V6.96669H10.1769L11.5761 4.73438H10.5141L8.83519 7.42657L7.15633 4.73438H6.09433L7.49347 6.96669H5.50195V7.82795L12.1686 7.81953Z" fill="#CC8232"/>
<path d="M11.5494 11.7576L10.1337 9.50035H12.1661V8.64733H5.5V9.50035H7.53292L6.11812 11.7576H7.17166L8.83324 9.10721L10.4959 11.7576H11.5494ZM12.1661 7.81953V6.96669H10.175L11.5741 4.73438H10.5121L8.83324 7.42657L7.15438 4.73438H6.09238L7.49152 6.96669H5.5V7.82795L12.1661 7.81953Z" fill="#CC8232"/>
<path d="M11.5494 11.7576L10.1339 9.50017H12.1667V8.64733H5.5V9.50017H7.53292L6.11722 11.7576H7.17076L8.83324 9.10721L10.4959 11.7576H11.5494ZM12.1667 7.8199V6.96669H10.175L11.5739 4.73438H10.5119L8.83324 7.42657L7.15438 4.73438H6.09238L7.49152 6.96669H5.5V7.82795L12.1667 7.8199Z" fill="#CC8232"/>
<path d="M11.5475 11.7576L10.1318 9.50017H12.1647V8.64733H5.49805V9.50017H7.53097L6.11527 11.7576H7.16881L8.83129 9.10721L10.4938 11.7576H11.5475ZM12.1647 7.81953V6.96669H10.173L11.5721 4.73438H10.5101L8.83129 7.42657L7.15243 4.73438H6.09043L7.48957 6.96669H5.49805V7.82795L12.1647 7.81953Z" fill="#CC8232"/>
<path d="M11.5455 11.7497L10.1298 9.49237H12.1628V8.63952H5.49609V9.49237H7.52901L6.11331 11.7497H7.16685L8.82933 9.09941L10.492 11.7497H11.5455ZM12.1628 7.81173V6.95888H10.1711L11.5702 4.72656H10.5082L8.82933 7.41877L7.15047 4.72656H6.08847L7.48761 6.95888H5.49609V7.82014L12.1628 7.81173Z" fill="#CC8232"/>
<path d="M11.5436 11.7483L10.1279 9.49164H12.1608V8.6397H5.49414V9.49255H7.52706L6.11136 11.7483H7.1649L8.82738 9.09868L10.49 11.7483H11.5436ZM12.1608 7.81027V6.95742H10.1695L11.5682 4.72656H10.5062L8.82738 7.41804L7.14852 4.72656H6.08652L7.48584 6.95742H5.49414V7.81868L12.1608 7.81027Z" fill="#CC8232"/>
<path d="M11.5416 11.7497L10.1259 9.49237H12.1588V8.63952H5.49219V9.49237H7.52511L6.10941 11.7497H7.16331L8.82543 9.09941L10.4881 11.7497H11.5416ZM12.1588 7.81173V6.95888H10.1671L11.5663 4.72656H10.5043L8.82543 7.41877L7.14657 4.72656H6.08457L7.48371 6.95888H5.49219V7.81941L12.1588 7.811V7.81173Z" fill="#CC8232"/>
<path d="M11.5416 11.7419L10.1259 9.48456H12.1588V8.63171H5.49219V9.48456H7.52511L6.10941 11.7419H7.16295L8.82543 9.0916L10.4881 11.7419H11.5416ZM12.1588 7.80392V6.95107H10.1671L11.5663 4.71875H10.5043L8.82543 7.41114L7.14711 4.71875H6.08511L7.48425 6.95107H5.49219V7.81233L12.1588 7.80392Z" fill="#CC8232"/>
<path d="M11.5382 11.7419L10.1233 9.48456H12.1562V8.63171H5.49023V9.48456H7.52243L6.10673 11.7419H7.16027L8.82275 9.0916L10.4854 11.7419H11.5382ZM12.1555 7.80392V6.95107H10.1645L11.5636 4.71875H10.5016L8.82275 7.41096L7.14389 4.71875H6.08189L7.48103 6.95107H5.49023V7.81233L12.1569 7.80392H12.1555Z" fill="#CC8232"/>
<path d="M11.5358 11.7419L10.1201 9.48456H12.153V8.63171H5.48633V9.48456H7.51925L6.10355 11.7419H7.15709L8.81885 9.0916L10.4815 11.7419H11.5358ZM12.153 7.80392V6.95107H10.1613L11.5604 4.71875H10.4984L8.81885 7.41096L7.14071 4.71875H6.07871L7.47785 6.95107H5.48633V7.81233L12.153 7.80392Z" fill="#CC8232"/>
<path d="M11.5338 11.7419L10.1181 9.48456H12.151V8.63171H5.48438V9.48456H7.51729L6.10159 11.7419H7.15513L8.81762 9.0916L10.4803 11.7419H11.5338ZM12.151 7.80392V6.95107H10.1593L11.5585 4.71875H10.4965L8.81762 7.41096L7.13876 4.71875H6.07676L7.47589 6.95107H5.48438V7.81233L12.151 7.80392Z" fill="#CC8232"/>
<path d="M11.5319 11.7419L10.1162 9.48474H12.1485V8.63171H5.48242V9.48474H7.51534L6.10054 11.7419H7.15408L8.81566 9.0916L10.4783 11.7419H11.5319ZM12.1485 7.80392V6.95107H10.1574L11.5565 4.71875H10.4945L8.81566 7.41096L7.1368 4.71875H6.0748L7.47394 6.95107H5.48242V7.81233L12.1485 7.80392Z" fill="#CC8232"/>
<path d="M11.5319 11.7341L10.1163 9.47674H12.1491V8.6239H5.48242V9.47674H7.51534L6.09964 11.7341H7.15318L8.81566 9.08378L10.4783 11.7341H11.5319ZM12.1491 7.79647V6.94326H10.1574L11.5563 4.71094H10.4943L8.81566 7.40314L7.1368 4.71094H6.0748L7.47394 6.94326H5.48242V7.80451L12.1491 7.79647Z" fill="#CC8232"/>
<path d="M11.528 11.7341L10.1123 9.47674H12.1452V8.6239H5.47852V9.47674H7.51144L6.09574 11.7341H7.14928L8.81176 9.08378L10.4742 11.7341H11.528ZM12.1452 7.7961V6.94326H10.1535L11.5526 4.71094H10.4906L8.81176 7.40314L7.1329 4.71094H6.0709L7.47004 6.94326H5.47852V7.80451L12.1452 7.7961Z" fill="#CC8232"/>
<path d="M11.528 11.7341L10.1123 9.47674H12.1452V8.6239H5.47852V9.47674H7.51144L6.09574 11.7341H7.14928L8.81176 9.08378L10.4744 11.7341H11.528ZM12.1452 7.7961V6.94326H10.1535L11.5526 4.71094H10.4906L8.81176 7.40314L7.1329 4.71094H6.0709L7.47004 6.94326H5.47852V7.80451L12.1452 7.7961Z" fill="#CC8232"/>
<path d="M11.526 11.7327L10.1103 9.47601H12.1432V8.62408H5.47656V9.47693H7.50948L6.09378 11.7327H7.14732L8.8098 9.08305L10.4725 11.7327H11.526ZM12.1432 7.79464V6.94179H10.1519L11.5507 4.71094H10.4887L8.8098 7.40241L7.13094 4.71094H6.06894L7.46826 6.94179H5.47656V7.80305L12.1432 7.79464Z" fill="#CC8232"/>
<path d="M11.524 11.7263L10.1083 9.46894H12.1413V8.61609H5.47461V9.46894H7.50753L6.09183 11.7263H7.14573L8.80785 9.07597L10.4705 11.7263H11.524ZM12.1413 7.78829V6.93546H10.1496L11.5487 4.70312H10.4867L8.80785 7.39533L7.12899 4.70312H6.06699L7.46613 6.93546H5.47461V7.79598L12.1413 7.78757V7.78829Z" fill="#CC8232"/>
<path d="M11.524 11.7263L10.1083 9.46894H12.1413V8.61609H5.47461V9.46894H7.50753L6.09183 11.7263H7.14537L8.80785 9.07597L10.4705 11.7263H11.524ZM12.1413 7.78829V6.93545H10.1496L11.5487 4.70312H10.4867L8.80785 7.39552L7.12953 4.70312H6.06753L7.46667 6.93545H5.47461V7.79671L12.1413 7.78829Z" fill="#CC8232"/>
<path d="M11.5207 11.7263L10.1057 9.46894H12.1386V8.61609H5.47266V9.46894H7.50486L6.08916 11.7263H7.1427L8.80518 9.07597L10.4678 11.7263H11.5207ZM12.1379 7.78829V6.93545H10.1469L11.546 4.70312H10.484L8.80518 7.39533L7.12632 4.70312H6.06432L7.46346 6.93545H5.47266V7.79671L12.1393 7.78829H12.1379Z" fill="#CC8232"/>
<path d="M11.5182 11.7263L10.1025 9.46894H12.1354V8.61609H5.46875V9.46894H7.50167L6.08597 11.7263H7.13951L8.80127 9.07597L10.4639 11.7263H11.5182ZM12.1354 7.78829V6.93546H10.1437L11.5429 4.70312H10.4809L8.80127 7.39533L7.12313 4.70312H6.06113L7.46027 6.93546H5.46875V7.79671L12.1354 7.78829Z" fill="#CC8232"/>
<path d="M11.5162 11.7263L10.1005 9.46894H12.1335V8.61609H5.4668V9.46894H7.49972L6.08402 11.7263H7.13756L8.80004 9.07597L10.4627 11.7263H11.5162ZM12.1335 7.78829V6.93546H10.1418L11.5409 4.70312H10.4789L8.80004 7.39533L7.12118 4.70312H6.05918L7.45832 6.93546H5.4668V7.79671L12.1335 7.78829Z" fill="#CC8232"/>
<path d="M11.5143 11.7185L10.0986 9.4613H12.131V8.60827H5.46484V9.4613H7.49776L6.08296 11.7185H7.1365L8.79808 9.06816L10.4607 11.7185H11.5143ZM12.131 7.78048V6.92763H10.1398L11.5389 4.69531H10.4769L8.79808 7.38752L7.11922 4.69531H6.05722L7.45636 6.92763H5.46484V7.78889L12.131 7.78048Z" fill="#CC8232"/>
<path d="M11.5123 11.7185L10.0968 9.46112H12.1296V8.60827H5.46289V9.46112H7.49581L6.08011 11.7185H7.13365L8.79613 9.06816L10.4588 11.7185H11.5123ZM12.1296 7.78084V6.92763H10.1379L11.5368 4.69531H10.4748L8.79613 7.38752L7.11727 4.69531H6.05527L7.45441 6.92763H5.46289V7.78889L12.1296 7.78084Z" fill="#CC8232"/>
<path d="M11.5104 11.7185L10.0947 9.46112H12.1276V8.60827H5.46094V9.46112H7.49386L6.07816 11.7185H7.1317L8.79418 9.06816L10.4567 11.7185H11.5104ZM12.1276 7.78048V6.92763H10.1359L11.535 4.69531H10.473L8.79418 7.38752L7.11532 4.69531H6.05332L7.45246 6.92763H5.46094V7.78889L12.1276 7.78048Z" fill="#CC8232"/>
<path d="M11.5104 11.7107L10.0947 9.45331H12.1276V8.60046H5.46094V9.45331H7.49386L6.07816 11.7107H7.1317L8.79418 9.06035L10.4568 11.7107H11.5104ZM12.1276 7.77267V6.91982H10.1359L11.535 4.6875H10.473L8.79418 7.37971L7.11532 4.6875H6.05332L7.45246 6.91982H5.46094V7.78108L12.1276 7.77267Z" fill="#CC8232"/>
<path d="M11.5084 11.7092L10.0927 9.45257H12.1256V8.60064H5.45898V9.45349H7.4919L6.0762 11.7092H7.12974L8.79222 9.05961L10.4549 11.7092H11.5084ZM12.1256 7.7712V6.91836H10.1343L11.5331 4.6875H10.4711L8.79222 7.37897L7.11336 4.6875H6.05136L7.45068 6.91836H5.45898V7.77961L12.1256 7.7712Z" fill="#CC8232"/>
<path d="M11.5065 11.7107L10.0908 9.45331H12.1237V8.60046H5.45703V9.45331H7.48995L6.07425 11.7107H7.12815L8.79027 9.06035L10.4529 11.7107H11.5065ZM12.1237 7.77267V6.91982H10.132L11.5311 4.6875H10.4691L8.79027 7.37971L7.11141 4.6875H6.04941L7.44855 6.91982H5.45703V7.78035L12.1237 7.77193V7.77267Z" fill="#CC8232"/>
<path d="M11.5026 11.7107L10.0869 9.45331H12.1198V8.60046H5.45312V9.45331H7.48605L6.07035 11.7107H7.12389L8.78638 9.06035L10.449 11.7107H11.5026ZM12.1198 7.77267V6.91982H10.1281L11.5272 4.6875H10.4652L8.78638 7.37989L7.10805 4.6875H6.04605L7.44519 6.91982H5.45312V7.78108L12.1198 7.77267Z" fill="#CC8232"/>
<path d="M11.4992 11.7107L10.0842 9.45331H12.1171V8.60046H5.45117V9.45331H7.48337L6.06767 11.7107H7.12121L8.78369 9.06035L10.4464 11.7107H11.4992ZM12.1164 7.77267V6.91982H10.1254L11.5246 4.6875H10.4626L8.78369 7.37971L7.10483 4.6875H6.04283L7.44197 6.91982H5.45117V7.78108L12.1178 7.77267H12.1164Z" fill="#CC8232"/>
<path d="M11.4987 11.7029L10.083 9.44549H12.1159V8.59265H5.44922V9.44549H7.48214L6.06644 11.7029H7.11998L8.78174 9.05253L10.4444 11.7029H11.4987ZM12.1159 7.76485V6.91201H10.1242L11.5233 4.67969H10.4613L8.78174 7.37189L7.1036 4.67969H6.0416L7.44074 6.91201H5.44922V7.77326L12.1159 7.76485Z" fill="#CC8232"/>
<path d="M11.4967 11.7029L10.081 9.44549H12.1139V8.59265H5.44727V9.44549H7.48019L6.06449 11.7029H7.11803L8.78051 9.05253L10.4432 11.7029H11.4967ZM12.1139 7.76485V6.91201H10.1222L11.5214 4.67969H10.4594L8.78051 7.37189L7.10165 4.67969H6.03965L7.43879 6.91201H5.44727V7.77327L12.1139 7.76485Z" fill="#CC8232"/>
<path d="M11.4967 11.7029L10.081 9.44568H12.1134V8.59265H5.44727V9.44568H7.48019L6.06539 11.7029H7.11893L8.78051 9.05253L10.4432 11.7029H11.4967ZM12.1134 7.76485V6.91201H10.1222L11.5214 4.67969H10.4594L8.78051 7.37189L7.10165 4.67969H6.03965L7.43879 6.91201H5.44727V7.77327L12.1134 7.76485Z" fill="#CC8232"/>
<path d="M11.4948 11.7029L10.0792 9.44549H12.112V8.59265H5.44531V9.44549H7.47823L6.06253 11.7029H7.11607L8.77855 9.05253L10.4412 11.7029H11.4948ZM12.112 7.76522V6.91201H10.1203L11.5192 4.67969H10.4572L8.77855 7.37189L7.09969 4.67969H6.03769L7.43683 6.91201H5.44531V7.77326L12.112 7.76522Z" fill="#CC8232"/>
<path d="M11.4928 11.6951L10.0771 9.43767H12.11V8.58483H5.44336V9.43767H7.47628L6.06058 11.6951H7.11412L8.7766 9.04471L10.4391 11.6951H11.4928ZM12.11 7.75703V6.90419H10.1183L11.5175 4.67188H10.4555L8.7766 7.36407L7.09774 4.67188H6.03574L7.43488 6.90419H5.44336V7.76545L12.11 7.75703Z" fill="#CC8232"/>
<path d="M11.4908 11.6951L10.0751 9.43767H12.1081V8.58483H5.44141V9.43767H7.47433L6.05863 11.6951H7.11217L8.77465 9.04471L10.4373 11.6951H11.4908ZM12.1081 7.75703V6.90419H10.1164L11.5155 4.67188H10.4535L8.77465 7.36407L7.09579 4.67188H6.03379L7.43293 6.90419H5.44141V7.76545L12.1081 7.75703Z" fill="#CC8232"/>
<path d="M11.4908 11.6936L10.0751 9.43694H12.1081V8.58501H5.44141V9.43786H7.47433L6.05863 11.6936H7.11217L8.77465 9.04399L10.4373 11.6936H11.4908ZM12.1081 7.75558V6.90272H10.1167L11.5155 4.67188H10.4535L8.77465 7.36334L7.09579 4.67188H6.03379L7.43311 6.90272H5.44141V7.76399L12.1081 7.75558Z" fill="#CC8232"/>
<path d="M11.4889 11.6951L10.0732 9.43767H12.1061V8.58483H5.43945V9.43767H7.47237L6.05667 11.6951H7.11057L8.77269 9.04471L10.4354 11.6951H11.4889ZM12.1061 7.75703V6.90419H10.1144L11.5136 4.67188H10.4516L8.77269 7.36407L7.09383 4.67188H6.03183L7.43097 6.90419H5.43945V7.76471L12.1061 7.75631V7.75703Z" fill="#CC8232"/>
<path d="M11.4869 11.6951L10.0712 9.43767H12.1042V8.58483H5.4375V9.43767H7.47042L6.05472 11.6951H7.10826L8.77074 9.04471L10.4334 11.6951H11.4869ZM12.1042 7.75703V6.90419H10.1125L11.5116 4.67188H10.4496L8.77074 7.36425L7.09242 4.67188H6.03042L7.42956 6.90419H5.4375V7.76545L12.1042 7.75703Z" fill="#CC8232"/>
<path d="M11.4816 11.6872L10.0666 9.42987H12.0995V8.57702H5.43359V9.42987H7.46579L6.05009 11.6872H7.10363L8.76611 9.03691L10.4288 11.6872H11.4816ZM12.0988 7.74923V6.89638H10.1078L11.507 4.66406H10.445L8.76611 7.35627L7.08725 4.66406H6.02525L7.42439 6.89638H5.43359V7.75764L12.1003 7.74923H12.0988Z" fill="#CC8232"/>
<path d="M11.4811 11.6872L10.0654 9.42987H12.0983V8.57702H5.43164V9.42987H7.46456L6.04886 11.6872H7.1024L8.76416 9.03691L10.4268 11.6872H11.4811ZM12.0983 7.74923V6.89638H10.1066L11.5057 4.66406H10.4437L8.76416 7.35627L7.08602 4.66406H6.02402L7.42316 6.89638H5.43164V7.75764L12.0983 7.74923Z" fill="#CC8232"/>
<path d="M11.4811 11.6872L10.0654 9.42987H12.0983V8.57702H5.43164V9.42987H7.46456L6.04886 11.6872H7.1024L8.76488 9.03691L10.4275 11.6872H11.4811ZM12.0983 7.74923V6.89638H10.1066L11.5057 4.66406H10.4437L8.76488 7.35627L7.08602 4.66406H6.02402L7.42316 6.89638H5.43164V7.75764L12.0983 7.74923Z" fill="#CC8232"/>
<path d="M11.4791 11.6794L10.0634 9.42224H12.0958V8.56921H5.42969V9.42224H7.46261L6.04781 11.6794H7.10135L8.76293 9.0291L10.4256 11.6794H11.4791ZM12.0958 7.74142V6.88857H10.1046L11.5038 4.65625H10.4418L8.76293 7.34846L7.08407 4.65625H6.02207L7.42121 6.88857H5.42969V7.74983L12.0958 7.74142Z" fill="#CC8232"/>
<path d="M11.4772 11.6794L10.0617 9.42206H12.0944V8.56921H5.42773V9.42206H7.46065L6.04495 11.6794H7.09849L8.76097 9.0291L10.4236 11.6794H11.4772ZM12.0944 7.74178V6.88857H10.1027L11.5017 4.65625H10.4397L8.76097 7.34846L7.08211 4.65625H6.02011L7.41925 6.88857H5.42773V7.74983L12.0944 7.74178Z" fill="#CC8232"/>
<path d="M11.4752 11.6794L10.0595 9.42206H12.0924V8.56921H5.42578V9.42206H7.4587L6.043 11.6794H7.09654L8.75902 9.0291L10.4215 11.6794H11.4752ZM12.0924 7.74142V6.88857H10.1007L11.4999 4.65625H10.4379L8.75902 7.34846L7.08016 4.65625H6.01816L7.4173 6.88857H5.42578V7.74983L12.0924 7.74142Z" fill="#CC8232"/>
<path d="M11.4733 11.6794L10.0576 9.42206H12.0905V8.56921H5.42383V9.42206H7.45675L6.04105 11.6794H7.09459L8.75707 9.0291L10.4197 11.6794H11.4733ZM12.0905 7.74142V6.88857H10.0988L11.4979 4.65625H10.4359L8.75707 7.34846L7.07821 4.65625H6.01621L7.41535 6.88857H5.42383V7.74983L12.0905 7.74142Z" fill="#CC8232"/>
<path d="M11.4713 11.678L10.0556 9.42132H12.0885V8.56939H5.42188V9.42224H7.45479L6.03909 11.678H7.09263L8.75512 9.02836L10.4178 11.678H11.4713ZM12.0885 7.73995V6.88711H10.0972L11.496 4.65625H10.434L8.75512 7.34772L7.07626 4.65625H6.01426L7.41356 6.88711H5.42188V7.74836L12.0885 7.73995Z" fill="#CC8232"/>
<path d="M11.4713 11.6716L10.0556 9.41424H12.0885V8.5614H5.42188V9.41424H7.45478L6.03909 11.6716H7.09299L8.75511 9.02128L10.4178 11.6716H11.4713ZM12.0885 7.7336V6.88076H10.0968L11.496 4.64844H10.434L8.75511 7.34064L7.07626 4.64844H6.01426L7.41339 6.88076H5.42188V7.74128L12.0885 7.73287V7.7336Z" fill="#CC8232"/>
<path d="M11.4674 11.6716L10.0517 9.41424H12.0846V8.5614H5.41797V9.41424H7.45089L6.03519 11.6716H7.08873L8.75121 9.02128L10.4139 11.6716H11.4674ZM12.0846 7.7336V6.88076H10.0929L11.4921 4.64844H10.4301L8.75121 7.34083L7.07289 4.64844H6.01089L7.41003 6.88076H5.41797V7.74201L12.0846 7.7336Z" fill="#CC8232"/>
<path d="M11.464 11.6716L10.049 9.41424H12.082V8.5614H5.41602V9.41424H7.44822L6.03252 11.6716H7.08606L8.74854 9.02128L10.4112 11.6716H11.464ZM12.0812 7.7336V6.88076H10.0903L11.4894 4.64844H10.4274L8.74854 7.34064L7.06968 4.64844H6.00768L7.40682 6.88076H5.41602V7.74201L12.0827 7.7336H12.0812Z" fill="#CC8232"/>
<path d="M11.4635 11.6716L10.0478 9.41424H12.0807V8.5614H5.41406V9.41424H7.44698L6.03128 11.6716H7.08482L8.74658 9.02128L10.4092 11.6716H11.4635ZM12.0807 7.7336V6.88076H10.089L11.4882 4.64844H10.4262L8.74658 7.34064L7.06844 4.64844H6.00644L7.40558 6.88076H5.41406V7.74201L12.0807 7.7336Z" fill="#CC8232"/>
<path d="M11.4615 11.6638L10.0458 9.40644H12.0788V8.55359H5.41211V9.40644H7.44503L6.02933 11.6638H7.08287L8.74535 9.01347L10.408 11.6638H11.4615ZM12.0788 7.72579V6.87296H10.0871L11.4862 4.64062H10.4242L8.74535 7.33283L7.06649 4.64062H6.00449L7.40363 6.87296H5.41211V7.73421L12.0788 7.72579Z" fill="#CC8232"/>
<path d="M11.4615 11.6638L10.0458 9.40662H12.0782V8.55359H5.41211V9.40662H7.44503L6.03023 11.6638H7.08377L8.74535 9.01347L10.408 11.6638H11.4615ZM12.0782 7.72579V6.87296H10.0871L11.4862 4.64062H10.4242L8.74535 7.33283L7.06649 4.64062H6.00449L7.40363 6.87296H5.41211V7.73421L12.0782 7.72579Z" fill="#CC8232"/>
<path d="M11.4576 11.6638L10.0421 9.40644H12.0749V8.55359H5.4082V9.40644H7.44112L6.02542 11.6638H7.07896L8.74144 9.01347L10.4041 11.6638H11.4576ZM12.0749 7.72616V6.87295H10.0832L11.4821 4.64062H10.4201L8.74144 7.33283L7.06258 4.64062H6.00058L7.39972 6.87295H5.4082V7.73421L12.0749 7.72616Z" fill="#CC8232"/>
<path d="M11.4576 11.6638L10.0419 9.40644H12.0749V8.55359H5.4082V9.40644H7.44112L6.02542 11.6638H7.07896L8.74144 9.01347L10.4039 11.6638H11.4576ZM12.0749 7.72579V6.87295H10.0832L11.4823 4.64062H10.4203L8.74144 7.33283L7.06258 4.64062H6.00058L7.39972 6.87295H5.4082V7.73421L12.0749 7.72579Z" fill="#CC8232"/>
<path d="M11.4557 11.6638L10.04 9.40644H12.0729V8.55359H5.40625V9.40644H7.43917L6.02347 11.6638H7.07701L8.73949 9.01347L10.4021 11.6638H11.4557ZM12.0729 7.72579V6.87296H10.0812L11.4804 4.64062H10.4184L8.73949 7.33283L7.06063 4.64062H5.99863L7.39777 6.87296H5.40625V7.73421L12.0729 7.72579Z" fill="#CC8232"/>
<path d="M11.4537 11.6545L10.038 9.39789H12.071V8.54595H5.4043V9.3988H7.43722L6.02152 11.6545H7.07506L8.73754 9.00493L10.4002 11.6545H11.4537ZM12.071 7.71652V6.86367H10.0796L11.4784 4.63281H10.4164L8.73754 7.32429L7.05868 4.63281H5.99668L7.396 6.86367H5.4043V7.72493L12.071 7.71652Z" fill="#CC8232"/>
<path d="M11.4537 11.656L10.038 9.39862H12.071V8.54577H5.4043V9.39862H7.43722L6.02152 11.656H7.07542L8.73754 9.00566L10.4002 11.656H11.4537ZM12.071 7.71798V6.86513H10.0793L11.4784 4.63281H10.4164L8.73754 7.32502L7.05868 4.63281H5.99668L7.39582 6.86513H5.4043V7.72566L12.071 7.71725V7.71798Z" fill="#CC8232"/>
<path d="M11.4479 11.656L10.0322 9.39862H12.0651V8.54577H5.39844V9.39862H7.43136L6.01566 11.656H7.0692L8.73168 9.00566L10.3943 11.656H11.4479ZM12.0651 7.71798V6.86513H10.0734L11.4725 4.63281H10.4105L8.73168 7.3252L7.05336 4.63281H5.99136L7.3905 6.86513H5.39844V7.72639L12.0651 7.71798Z" fill="#CC8232"/>
<path d="M11.4464 11.6482L10.0315 9.39081H12.0644V8.53796H5.39844V9.39081H7.43064L6.01494 11.6482H7.06848L8.73096 8.99785L10.3936 11.6482H11.4464ZM12.0637 7.71017V6.85732H10.0727L11.4718 4.625H10.4098L8.73096 7.31721L7.0521 4.625H5.9901L7.38924 6.85732H5.39844V7.71858L12.0651 7.71017H12.0637Z" fill="#CC8232"/>
<path d="M11.4459 11.6482L10.0302 9.39081H12.0631V8.53796H5.39648V9.39081H7.4294L6.0137 11.6482H7.06724L8.729 8.99785L10.3917 11.6482H11.4459ZM12.0631 7.71017V6.85732H10.0714L11.4706 4.625H10.4086L8.729 7.31721L7.05086 4.625H5.98886L7.388 6.85732H5.39648V7.71858L12.0631 7.71017Z" fill="#CC8232"/>
<path d="M11.444 11.6482L10.0283 9.39081H12.0612V8.53796H5.39453V9.39081H7.42745L6.01175 11.6482H7.06529L8.72777 8.99785L10.3904 11.6482H11.444ZM12.0612 7.71017V6.85732H10.0695L11.4686 4.625H10.4066L8.72777 7.31721L7.04891 4.625H5.98691L7.38605 6.85732H5.39453V7.71858L12.0612 7.71017Z" fill="#CC8232"/>
<path d="M11.442 11.6482L10.0263 9.39099H12.0587V8.53796H5.39258V9.39099H7.4255L6.0107 11.6482H7.06424L8.72582 8.99785L10.3885 11.6482H11.442ZM12.0587 7.71017V6.85732H10.0675L11.4667 4.625H10.4047L8.72582 7.31721L7.04696 4.625H5.98496L7.3841 6.85732H5.39258V7.71858L12.0587 7.71017Z" fill="#CC8232"/>
<path d="M11.4401 11.6482L10.0245 9.39081H12.0573V8.53796H5.39062V9.39081H7.42355L6.00785 11.6482H7.06139L8.72388 8.99785L10.3865 11.6482H11.4401ZM12.0573 7.71053V6.85732H10.0656L11.4645 4.625H10.4025L8.72388 7.31721L7.04502 4.625H5.98302L7.38216 6.85732H5.39062V7.71858L12.0573 7.71053Z" fill="#CC8232"/>
<path d="M11.4401 11.6482L10.0244 9.39081H12.0573V8.53796H5.39062V9.39081H7.42354L6.00785 11.6482H7.06139L8.72388 8.99785L10.3863 11.6482H11.4401ZM12.0573 7.71017V6.85732H10.0656L11.4647 4.625H10.4027L8.72388 7.31721L7.04502 4.625H5.98302L7.38216 6.85732H5.39062V7.71858L12.0573 7.71017Z" fill="#CC8232"/>
<path d="M11.4381 11.6404L10.0224 9.38299H12.0553V8.53015H5.38867V9.38299H7.42159L6.00589 11.6404H7.05943L8.72191 8.99003L10.3846 11.6404H11.4381ZM12.0553 7.70235V6.84951H10.0636L11.4628 4.61719H10.4008L8.72191 7.30939L7.04305 4.61719H5.98105L7.38019 6.84951H5.38867V7.71076L12.0553 7.70235Z" fill="#CC8232"/>
<path d="M11.4362 11.6389L10.0205 9.38226H12.0534V8.53033H5.38672V9.38318H7.41964L6.00394 11.6389H7.05748L8.71996 8.9893L10.3826 11.6389H11.4362ZM12.0534 7.70089V6.84804H10.062L11.4608 4.61719H10.3988L8.71996 7.30866L7.0411 4.61719H5.9791L7.37842 6.84804H5.38672V7.7093L12.0534 7.70089Z" fill="#CC8232"/>
<path d="M11.4323 11.6404L10.0166 9.38299H12.0495V8.53015H5.38281V9.38299H7.41573L6.00003 11.6404H7.05393L8.71605 8.99003L10.3787 11.6404H11.4323ZM12.0495 7.70235V6.84951H10.0578L11.4569 4.61719H10.3949L8.71605 7.30939L7.03719 4.61719H5.97519L7.37433 6.84951H5.38281V7.71003L12.0495 7.70162V7.70235Z" fill="#CC8232"/>
<path d="M11.4303 11.6326L10.0146 9.37517H12.0475V8.52233H5.38086V9.37517H7.41378L5.99808 11.6326H7.05162L8.7141 8.98221L10.3768 11.6326H11.4303ZM12.0475 7.69453V6.84169H10.0558L11.455 4.60938H10.393L8.7141 7.30175L7.03578 4.60938H5.97378L7.37292 6.84169H5.38086V7.70295L12.0475 7.69453Z" fill="#CC8232"/>
<path d="M11.4289 11.6326L10.0139 9.37517H12.0468V8.52233H5.38086V9.37517H7.41306L5.99736 11.6326H7.0509L8.71338 8.98221L10.376 11.6326H11.4289ZM12.0461 7.69453V6.84169H10.0551L11.4542 4.60938H10.3922L8.71338 7.30157L7.03452 4.60938H5.97252L7.37166 6.84169H5.38086V7.70295L12.0475 7.69453H12.0461Z" fill="#CC8232"/>
<path d="M11.4283 11.6326L10.0126 9.37517H12.0456V8.52233H5.37891V9.37517H7.41183L5.99613 11.6326H7.04967L8.71143 8.98221L10.3741 11.6326H11.4283ZM12.0456 7.69453V6.84169H10.0539L11.453 4.60938H10.391L8.71143 7.30157L7.03329 4.60938H5.97129L7.37043 6.84169H5.37891V7.70295L12.0456 7.69453Z" fill="#CC8232"/>
<path d="M11.4264 11.6326L10.0107 9.37517H12.0436V8.52233H5.37695V9.37517H7.40987L5.99417 11.6326H7.04771L8.71019 8.98221L10.3729 11.6326H11.4264ZM12.0436 7.69453V6.84169H10.0519L11.4511 4.60938H10.3891L8.71019 7.30157L7.03133 4.60938H5.96933L7.36847 6.84169H5.37695V7.70295L12.0436 7.69453Z" fill="#CC8232"/>
<path d="M11.4244 11.6326L10.0087 9.37535H12.0411V8.52233H5.375V9.37535H7.40792L5.99312 11.6326H7.04666L8.70824 8.98221L10.3709 11.6326H11.4244ZM12.0411 7.69453V6.84169H10.05L11.4491 4.60938H10.3871L8.70824 7.30157L7.02938 4.60938H5.96738L7.36652 6.84169H5.375V7.70295L12.0411 7.69453Z" fill="#CC8232"/>
<path d="M11.4225 11.6247L10.007 9.36737H12.0397V8.51452H5.37305V9.36737H7.40597L5.99027 11.6247H7.04381L8.70629 8.97441L10.3689 11.6247H11.4225ZM12.0397 7.68709V6.83388H10.048L11.447 4.60156H10.385L8.70629 7.29377L7.02743 4.60156H5.96543L7.36457 6.83388H5.37305V7.69514L12.0397 7.68709Z" fill="#CC8232"/>
<path d="M11.4205 11.6247L10.0048 9.36737H12.0378V8.51452H5.37109V9.36737H7.40401L5.98831 11.6247H7.04185L8.70433 8.97441L10.3668 11.6247H11.4205ZM12.0378 7.68673V6.83388H10.0461L11.4452 4.60156H10.3832L8.70433 7.29377L7.02547 4.60156H5.96347L7.36261 6.83388H5.37109V7.69514L12.0378 7.68673Z" fill="#CC8232"/>
<path d="M11.4205 11.6247L10.0048 9.36737H12.0378V8.51452H5.37109V9.36737H7.40401L5.98831 11.6247H7.04185L8.70433 8.97441L10.367 11.6247H11.4205ZM12.0378 7.68673V6.83388H10.0461L11.4452 4.60156H10.3832L8.70433 7.29377L7.02547 4.60156H5.96347L7.36261 6.83388H5.37109V7.69514L12.0378 7.68673Z" fill="#CC8232"/>
<path d="M11.4186 11.6233L10.0029 9.36664H12.0358V8.5147H5.36914V9.36755H7.40206L5.98636 11.6233H7.0399L8.70238 8.97368L10.365 11.6233H11.4186ZM12.0358 7.68527V6.83242H10.0445L11.4432 4.60156H10.3812L8.70238 7.29304L7.02352 4.60156H5.96152L7.36084 6.83242H5.36914V7.69368L12.0358 7.68527Z" fill="#CC8232"/>
<path d="M11.4147 11.6169L9.99897 9.35956H12.0319V8.50671H5.36523V9.35956H7.39815L5.98245 11.6169H7.03635L8.69847 8.9666L10.3611 11.6169H11.4147ZM12.0319 7.67892V6.82607H10.0402L11.4393 4.59375H10.3773L8.69847 7.28596L7.01961 4.59375H5.95761L7.35675 6.82607H5.36523V7.6866L12.0319 7.67818V7.67892Z" fill="#CC8232"/>
<path d="M11.4127 11.6169L9.99702 9.35956H12.0299V8.50671H5.36328V9.35956H7.3962L5.9805 11.6169H7.03404L8.69652 8.9666L10.3592 11.6169H11.4127ZM12.0299 7.67892V6.82607H10.0382L11.4374 4.59375H10.3754L8.69652 7.28614L7.0182 4.59375H5.9562L7.35534 6.82607H5.36328V7.68733L12.0299 7.67892Z" fill="#CC8232"/>
<path d="M11.4113 11.6169L9.9963 9.35956H12.0292V8.50671H5.36328V9.35956H7.39548L5.97978 11.6169H7.03332L8.6958 8.9666L10.3585 11.6169H11.4113ZM12.0285 7.67892V6.82607H10.0375L11.4367 4.59375H10.3747L8.6958 7.28596L7.01694 4.59375H5.95494L7.35408 6.82607H5.36328V7.68733L12.0299 7.67892H12.0285Z" fill="#CC8232"/>
<path d="M11.4108 11.6169L9.99507 9.35956H12.028V8.50671H5.36133V9.35956H7.39425L5.97855 11.6169H7.03209L8.69385 8.9666L10.3565 11.6169H11.4108ZM12.028 7.67892V6.82607H10.0363L11.4354 4.59375H10.3734L8.69385 7.28596L7.01571 4.59375H5.95371L7.35285 6.82607H5.36133V7.68733L12.028 7.67892Z" fill="#CC8232"/>
<path d="M11.4088 11.6169L9.99311 9.35956H12.026V8.50671H5.35938V9.35956H7.39229L5.97659 11.6169H7.03013L8.69262 8.9666L10.3553 11.6169H11.4088ZM12.026 7.67892V6.82607H10.0343L11.4335 4.59375H10.3715L8.69262 7.28596L7.01376 4.59375H5.95176L7.35089 6.82607H5.35938V7.68733L12.026 7.67892Z" fill="#CC8232"/>
<path d="M11.4069 11.6091L9.99116 9.35193H12.0235V8.4989H5.35742V9.35193H7.39034L5.97554 11.6091H7.02908L8.69066 8.95878L10.3533 11.6091H11.4069ZM12.0235 7.6711V6.81826H10.0324L11.4315 4.58594H10.3695L8.69066 7.27814L7.0118 4.58594H5.9498L7.34894 6.81826H5.35742V7.67952L12.0235 7.6711Z" fill="#CC8232"/>
<path d="M11.4049 11.6091L9.98939 9.35174H12.0221V8.4989H5.35547V9.35174H7.38839L5.97269 11.6091H7.02623L8.68871 8.95878L10.3514 11.6091H11.4049ZM12.0221 7.67147V6.81826H10.0304L11.4294 4.58594H10.3674L8.68871 7.27814L7.00985 4.58594H5.94785L7.34699 6.81826H5.35547V7.67951L12.0221 7.67147Z" fill="#CC8232"/>
<path d="M11.403 11.6091L9.98726 9.35174H12.0202V8.4989H5.35352V9.35174H7.38644L5.97074 11.6091H7.02428L8.68676 8.95878L10.3492 11.6091H11.403ZM12.0202 7.6711V6.81826H10.0285L11.4276 4.58594H10.3656L8.68676 7.27814L7.0079 4.58594H5.9459L7.34504 6.81826H5.35352V7.67951L12.0202 7.6711Z" fill="#CC8232"/>
<path d="M11.401 11.6013L9.9853 9.34394H12.0182V8.49109H5.35156V9.34394H7.38448L5.96878 11.6013H7.02232L8.6848 8.95097L10.3475 11.6013H11.401ZM12.0182 7.66329V6.81046H10.0265L11.4257 4.57812H10.3637L8.6848 7.27033L7.00594 4.57812H5.94394L7.34308 6.81046H5.35156V7.67171L12.0182 7.66329Z" fill="#CC8232"/>
<path d="M11.401 11.5998L9.9853 9.3432H12.0182V8.49127H5.35156V9.34412H7.38448L5.96878 11.5998H7.02232L8.6848 8.95025L10.3475 11.5998H11.401ZM12.0182 7.66184V6.80898H10.0269L11.4257 4.57812H10.3637L8.6848 7.2696L7.00594 4.57812H5.94394L7.34326 6.80898H5.35156V7.67024L12.0182 7.66184Z" fill="#CC8232"/>
<path d="M11.3971 11.6013L9.9814 9.34394H12.0143V8.49109H5.34766V9.34394H7.38058L5.96488 11.6013H7.01878L8.6809 8.95097L10.3436 11.6013H11.3971ZM12.0143 7.66329V6.81046H10.0226L11.4218 4.57812H10.3598L8.6809 7.27033L7.00204 4.57812H5.94004L7.33918 6.81046H5.34766V7.67098L12.0143 7.66257V7.66329Z" fill="#CC8232"/>
<path d="M11.3951 11.6013L9.97944 9.34394H12.0124V8.49109H5.3457V9.34394H7.37862L5.96292 11.6013H7.01646L8.67894 8.95097L10.3416 11.6013H11.3951ZM12.0124 7.66329V6.81045H10.0207L11.4198 4.57812H10.3578L8.67894 7.27052L7.00062 4.57812H5.93862L7.33776 6.81045H5.3457V7.67171L12.0124 7.66329Z" fill="#CC8232"/>
<path d="M11.3918 11.6013L9.97677 9.34394H12.0097V8.49109H5.34375V9.34394H7.37595L5.96025 11.6013H7.01379L8.67627 8.95097L10.3389 11.6013H11.3918ZM12.009 7.66329V6.81045H10.018L11.4171 4.57812H10.3551L8.67627 7.27033L6.99741 4.57812H5.93541L7.33455 6.81045H5.34375V7.67171L12.0104 7.66329H12.009Z" fill="#CC8232"/>
<path d="M11.3912 11.5935L9.97554 9.33612H12.0085V8.48327H5.3418V9.33612H7.37472L5.95902 11.5935H7.01256L8.67432 8.94316L10.337 11.5935H11.3912ZM12.0085 7.65548V6.80263H10.0168L11.4159 4.57031H10.3539L8.67432 7.26252L6.99618 4.57031H5.93418L7.33332 6.80263H5.3418V7.66389L12.0085 7.65548Z" fill="#CC8232"/>
<path d="M11.3912 11.5935L9.97554 9.33612H12.0085V8.48327H5.3418V9.33612H7.37472L5.95902 11.5935H7.01256L8.67504 8.94316L10.3377 11.5935H11.3912ZM12.0085 7.65548V6.80263H10.0168L11.4159 4.57031H10.3539L8.67504 7.26252L6.99618 4.57031H5.93418L7.33332 6.80263H5.3418V7.66389L12.0085 7.65548Z" fill="#CC8232"/>
<path d="M11.3873 11.5935L9.97163 9.3363H12.004V8.48327H5.33789V9.3363H7.37081L5.95601 11.5935H7.00955L8.67113 8.94316L10.3338 11.5935H11.3873ZM12.004 7.65548V6.80263H10.0129L11.412 4.57031H10.35L8.67113 7.26252L6.99227 4.57031H5.93027L7.32941 6.80263H5.33789V7.66389L12.004 7.65548Z" fill="#CC8232"/>
<path d="M11.3873 11.5935L9.97181 9.33612H12.0046V8.48327H5.33789V9.33612H7.37081L5.95511 11.5935H7.00865L8.67113 8.94316L10.3338 11.5935H11.3873ZM12.0046 7.65584V6.80263H10.0129L11.4118 4.57031H10.3498L8.67113 7.26252L6.99227 4.57031H5.93027L7.32941 6.80263H5.33789V7.66389L12.0046 7.65584Z" fill="#CC8232"/>
<path d="M11.3854 11.5857L9.96968 9.32831H12.0026V8.47546H5.33594V9.32831H7.36886L5.95316 11.5857H7.0067L8.66918 8.93535L10.3317 11.5857H11.3854ZM12.0026 7.64767V6.79482H10.0109L11.41 4.5625H10.348L8.66918 7.25471L6.99032 4.5625H5.92832L7.32746 6.79482H5.33594V7.65608L12.0026 7.64767Z" fill="#CC8232"/>
<path d="M11.3834 11.5857L9.96772 9.32831H12.0006V8.47546H5.33398V9.32831H7.3669L5.9512 11.5857H7.00474L8.66722 8.93535L10.3299 11.5857H11.3834ZM12.0006 7.64767V6.79482H10.0089L11.4081 4.5625H10.3461L8.66722 7.25471L6.98836 4.5625H5.92636L7.3255 6.79482H5.33398V7.65608L12.0006 7.64767Z" fill="#CC8232"/>
<path d="M11.3834 11.5842L9.96772 9.32757H12.0006V8.47564H5.33398V9.32849H7.3669L5.9512 11.5842H7.00474L8.66722 8.93461L10.3299 11.5842H11.3834ZM12.0006 7.6462V6.79336H10.0093L11.4081 4.5625H10.3461L8.66722 7.25397L6.98836 4.5625H5.92636L7.32568 6.79336H5.33398V7.65461L12.0006 7.6462Z" fill="#CC8232"/>
<path d="M11.3776 11.5857L9.96187 9.32831H11.9948V8.47546H5.32812V9.32831H7.36104L5.94535 11.5857H6.99925L8.66137 8.93535L10.324 11.5857H11.3776ZM11.9948 7.64767V6.79482H10.0031L11.4022 4.5625H10.3402L8.66137 7.25471L6.98252 4.5625H5.92052L7.31965 6.79482H5.32812V7.65535L11.9948 7.64693V7.64767Z" fill="#CC8232"/>
<path d="M11.3776 11.5857L9.96187 9.32831H11.9948V8.47546H5.32812V9.32831H7.36105L5.94535 11.5857H6.99889L8.66138 8.93535L10.324 11.5857H11.3776ZM11.9948 7.64767V6.79482H10.0031L11.4022 4.5625H10.3402L8.66138 7.25489L6.98305 4.5625H5.92105L7.32019 6.79482H5.32812V7.65608L11.9948 7.64767Z" fill="#CC8232"/>
<path d="M11.3742 11.5779L9.95919 9.32049H11.9921V8.46765H5.32617V9.32049H7.35837L5.94267 11.5779H6.99621L8.65869 8.92753L10.3214 11.5779H11.3742ZM11.9914 7.63985V6.78701H10.0004L11.3996 4.55469H10.3376L8.65869 7.24689L6.97983 4.55469H5.91783L7.31697 6.78701H5.32617V7.64826L11.9928 7.63985H11.9914Z" fill="#CC8232"/>
<path d="M11.3737 11.5779L9.95796 9.32049H11.9909V8.46765H5.32422V9.32049H7.35714L5.94144 11.5779H6.99498L8.65674 8.92753L10.3194 11.5779H11.3737ZM11.9909 7.63985V6.78701H9.99918L11.3983 4.55469H10.3363L8.65674 7.24689L6.9786 4.55469H5.9166L7.31574 6.78701H5.32422V7.64826L11.9909 7.63985Z" fill="#CC8232"/>
<path d="M11.3737 11.5779L9.95796 9.32049H11.9909V8.46765H5.32422V9.32049H7.35714L5.94144 11.5779H6.99498L8.65746 8.92753L10.3201 11.5779H11.3737ZM11.9909 7.63985V6.78701H9.99918L11.3983 4.55469H10.3363L8.65746 7.24689L6.9786 4.55469H5.9166L7.31574 6.78701H5.32422V7.64827L11.9909 7.63985Z" fill="#CC8232"/>
<path d="M11.3698 11.5701L9.95405 9.31285H11.9864V8.45983H5.32031V9.31285H7.35323L5.93843 11.5701H6.99197L8.65355 8.91971L10.3162 11.5701H11.3698ZM11.9864 7.63203V6.77919H9.99527L11.3944 4.54688H10.3324L8.65355 7.23907L6.97469 4.54688H5.91269L7.31183 6.77919H5.32031V7.64045L11.9864 7.63203Z" fill="#CC8232"/>
<path d="M11.3698 11.5701L9.95423 9.31267H11.987V8.45983H5.32031V9.31267H7.35323L5.93753 11.5701H6.99107L8.65355 8.91971L10.3162 11.5701H11.3698ZM11.987 7.6324V6.77919H9.99527L11.3942 4.54688H10.3322L8.65355 7.23907L6.97469 4.54688H5.91269L7.31183 6.77919H5.32031V7.64045L11.987 7.6324Z" fill="#CC8232"/>
<path d="M11.3678 11.5701L9.9521 9.31267H11.985V8.45983H5.31836V9.31267H7.35128L5.93558 11.5701H6.98912L8.6516 8.91971L10.3141 11.5701H11.3678ZM11.985 7.63203V6.77919H9.99332L11.3925 4.54688H10.3305L8.6516 7.23907L6.97274 4.54688H5.91074L7.30988 6.77919H5.31836V7.64045L11.985 7.63203Z" fill="#CC8232"/>
<path d="M11.3658 11.5701L9.95015 9.31267H11.9831V8.45983H5.31641V9.31267H7.34933L5.93363 11.5701H6.98717L8.64965 8.91971L10.3123 11.5701H11.3658ZM11.9831 7.63203V6.77919H9.99137L11.3905 4.54688H10.3285L8.64965 7.23907L6.97079 4.54688H5.90879L7.30793 6.77919H5.31641V7.64045L11.9831 7.63203Z" fill="#CC8232"/>
<path d="M11.3619 11.5686L9.94624 9.31194H11.9792V8.46001H5.3125V9.31286H7.34542L5.92972 11.5686H6.98326L8.64574 8.91899L10.3084 11.5686H11.3619ZM11.9792 7.63058V6.77772H9.98782L11.3866 4.54688H10.3246L8.64574 7.23834L6.96688 4.54688H5.90488L7.3042 6.77772H5.3125V7.63899L11.9792 7.63058Z" fill="#CC8232"/>
<path d="M11.36 11.5622L9.94429 9.30487H11.9772V8.45202H5.31055V9.30487H7.34347L5.92777 11.5622H6.98167L8.64379 8.91191L10.3064 11.5622H11.36ZM11.9772 7.62423V6.77138H9.98551L11.3846 4.53906H10.3226L8.64379 7.23127L6.96493 4.53906H5.90293L7.30207 6.77138H5.31055V7.63191L11.9772 7.6235V7.62423Z" fill="#CC8232"/>
<path d="M11.36 11.5622L9.94429 9.30487H11.9772V8.45202H5.31055V9.30487H7.34347L5.92777 11.5622H6.98131L8.64379 8.91191L10.3064 11.5622H11.36ZM11.9772 7.62423V6.77138H9.98551L11.3846 4.53906H10.3226L8.64379 7.23145L6.96547 4.53906H5.90347L7.30261 6.77138H5.31055V7.63264L11.9772 7.62423Z" fill="#CC8232"/>
<path d="M11.3566 11.5622L9.94161 9.30487H11.9745V8.45202H5.30859V9.30487H7.34079L5.92509 11.5622H6.97863L8.64111 8.91191L10.3038 11.5622H11.3566ZM11.9738 7.62423V6.77138H9.98283L11.382 4.53906H10.32L8.64111 7.23127L6.96225 4.53906H5.90025L7.29939 6.77138H5.30859V7.63264L11.9753 7.62423H11.9738Z" fill="#CC8232"/>
<path d="M11.3561 11.5622L9.94038 9.30487H11.9733V8.45202H5.30664V9.30487H7.33956L5.92386 11.5622H6.9774L8.63916 8.91191L10.3018 11.5622H11.3561ZM11.9733 7.62423V6.77138H9.9816L11.3807 4.53906H10.3187L8.63916 7.23127L6.96102 4.53906H5.89902L7.29816 6.77138H5.30664V7.63264L11.9733 7.62423Z" fill="#CC8232"/>
<path d="M11.3541 11.5544L9.93843 9.29706H11.9713V8.44421H5.30469V9.29706H7.33761L5.92191 11.5544H6.97545L8.63793 8.9041L10.3006 11.5544H11.3541ZM11.9713 7.61642V6.76357H9.97965L11.3788 4.53125H10.3168L8.63793 7.22346L6.95907 4.53125H5.89707L7.29621 6.76357H5.30469V7.62483L11.9713 7.61642Z" fill="#CC8232"/>
<path d="M11.3522 11.5544L9.93647 9.29724H11.9689V8.44421H5.30273V9.29724H7.33565L5.92085 11.5544H6.97439L8.63597 8.9041L10.2986 11.5544H11.3522ZM11.9689 7.61642V6.76357H9.97769L11.3768 4.53125H10.3148L8.63597 7.22346L6.95711 4.53125H5.89511L7.29425 6.76357H5.30273V7.62483L11.9689 7.61642Z" fill="#CC8232"/>
<path d="M11.3502 11.5544L9.9347 9.29706H11.9674V8.44421H5.30078V9.29706H7.3337L5.918 11.5544H6.97154L8.63402 8.9041L10.2967 11.5544H11.3502ZM11.9674 7.61678V6.76357H9.97574L11.3747 4.53125H10.3127L8.63402 7.22346L6.95516 4.53125H5.89316L7.2923 6.76357H5.30078V7.62483L11.9674 7.61678Z" fill="#CC8232"/>
<path d="M11.3502 11.5544L9.93452 9.29706H11.9674V8.44421H5.30078V9.29706H7.3337L5.918 11.5544H6.97154L8.63402 8.9041L10.2965 11.5544H11.3502ZM11.9674 7.61642V6.76357H9.97574L11.3749 4.53125H10.3129L8.63402 7.22346L6.95516 4.53125H5.89316L7.2923 6.76357H5.30078V7.62483L11.9674 7.61642Z" fill="#CC8232"/>
<path d="M11.3483 11.5544L9.93257 9.29706H11.9655V8.44421H5.29883V9.29706H7.33175L5.91605 11.5544H6.96959L8.63207 8.9041L10.2947 11.5544H11.3483ZM11.9655 7.61642V6.76357H9.97379L11.3729 4.53125H10.3109L8.63207 7.22346L6.95321 4.53125H5.89121L7.29035 6.76357H5.29883V7.62483L11.9655 7.61642Z" fill="#CC8232"/>
<path d="M11.3463 11.5452L9.93061 9.28851H11.9635V8.43658H5.29688V9.28943H7.32979L5.91409 11.5452H6.96763L8.63012 8.89555L10.2928 11.5452H11.3463ZM11.9635 7.60714V6.75429H9.9722L11.371 4.52344H10.309L8.63012 7.21491L6.95126 4.52344H5.88926L7.28856 6.75429H5.29688V7.61555L11.9635 7.60714Z" fill="#CC8232"/>
<path d="M11.3424 11.5466L9.92671 9.28924H11.9596V8.4364H5.29297V9.28924H7.32589L5.91019 11.5466H6.96409L8.62621 8.89628L10.2889 11.5466H11.3424ZM11.9596 7.6086V6.75576H9.96793L11.3671 4.52344H10.3051L8.62621 7.21564L6.94735 4.52344H5.88535L7.28449 6.75576H5.29297V7.61628L11.9596 7.60787V7.6086Z" fill="#CC8232"/>
<path d="M11.3405 11.5466L9.92476 9.28924H11.9577V8.4364H5.29102V9.28924H7.32394L5.90824 11.5466H6.96178L8.62426 8.89628L10.2869 11.5466H11.3405ZM11.9577 7.6086V6.75576H9.96598L11.3651 4.52344H10.3031L8.62426 7.21583L6.94594 4.52344H5.88394L7.28308 6.75576H5.29102V7.61701L11.9577 7.6086Z" fill="#CC8232"/>
<path d="M11.339 11.5388L9.92404 9.28144H11.957V8.42859H5.29102V9.28144H7.32322L5.90752 11.5388H6.96106L8.62354 8.88847L10.2862 11.5388H11.339ZM11.9562 7.60079V6.74795H9.96526L11.3644 4.51562H10.3024L8.62354 7.20783L6.94468 4.51562H5.88268L7.28182 6.74795H5.29102V7.60921L11.9577 7.60079H11.9562Z" fill="#CC8232"/>
<path d="M11.3385 11.5388L9.9228 9.28144H11.9557V8.42859H5.28906V9.28144H7.32198L5.90628 11.5388H6.95982L8.62158 8.88847L10.2842 11.5388H11.3385ZM11.9557 7.60079V6.74796H9.96402L11.3632 4.51562H10.3012L8.62158 7.20783L6.94344 4.51562H5.88144L7.28058 6.74796H5.28906V7.60921L11.9557 7.60079Z" fill="#CC8232"/>
<path d="M11.3365 11.5388L9.92085 9.28144H11.9538V8.42859H5.28711V9.28144H7.32003L5.90433 11.5388H6.95787L8.62035 8.88847L10.283 11.5388H11.3365ZM11.9538 7.60079V6.74796H9.96207L11.3612 4.51562H10.2992L8.62035 7.20783L6.94149 4.51562H5.87949L7.27863 6.74796H5.28711V7.60921L11.9538 7.60079Z" fill="#CC8232"/>
<path d="M11.3346 11.5388L9.9189 9.28162H11.9513V8.42859H5.28516V9.28162H7.31808L5.90328 11.5388H6.95682L8.6184 8.88847L10.2811 11.5388H11.3346ZM11.9513 7.60079V6.74796H9.96012L11.3593 4.51562H10.2973L8.6184 7.20783L6.93954 4.51562H5.87754L7.27668 6.74796H5.28516V7.60921L11.9513 7.60079Z" fill="#CC8232"/>
<path d="M11.3326 11.5388L9.91712 9.28144H11.9499V8.42859H5.2832V9.28144H7.31612L5.90042 11.5388H6.95396L8.61644 8.88847L10.2791 11.5388H11.3326ZM11.9499 7.60116V6.74795H9.95816L11.3571 4.51562H10.2951L8.61644 7.20783L6.93758 4.51562H5.87558L7.27472 6.74795H5.2832V7.60921L11.9499 7.60116Z" fill="#CC8232"/>
<path d="M11.3326 11.531L9.91694 9.27362H11.9499V8.42077H5.2832V9.27362H7.31612L5.90042 11.531H6.95396L8.61644 8.88066L10.2789 11.531H11.3326ZM11.9499 7.59298V6.74013H9.95816L11.3573 4.50781H10.2953L8.61644 7.20002L6.93758 4.50781H5.87558L7.27472 6.74013H5.2832V7.60139L11.9499 7.59298Z" fill="#CC8232"/>
<path d="M11.3307 11.531L9.91499 9.27362H11.9479V8.42077H5.28125V9.27362H7.31417L5.89847 11.531H6.95201L8.61449 8.88066L10.2771 11.531H11.3307ZM11.9479 7.59298V6.74013H9.95621L11.3554 4.50781H10.2934L8.61449 7.20002L6.93563 4.50781H5.87363L7.27277 6.74013H5.28125V7.60139L11.9479 7.59298Z" fill="#CC8232"/>
<path d="M11.3268 11.5295L9.91108 9.27289H11.944V8.42095H5.27734V9.2738H7.31026L5.89456 11.5295H6.9481L8.61058 8.87993L10.2732 11.5295H11.3268ZM11.944 7.59152V6.73867H9.95266L11.3514 4.50781H10.2894L8.61058 7.19929L6.93172 4.50781H5.86972L7.26904 6.73867H5.27734V7.59993L11.944 7.59152Z" fill="#CC8232"/>
<path d="M11.3248 11.531L9.90913 9.27362H11.9421V8.42077H5.27539V9.27362H7.30831L5.89261 11.531H6.94651L8.60863 8.88066L10.2713 11.531H11.3248ZM11.9421 7.59298V6.74013H9.95035L11.3495 4.50781H10.2875L8.60863 7.20002L6.92977 4.50781H5.86777L7.26691 6.74013H5.27539V7.60066L11.9421 7.59225V7.59298Z" fill="#CC8232"/>
<path d="M11.3229 11.5232L9.90718 9.26581H11.9401V8.41296H5.27344V9.26581H7.30636L5.89066 11.5232H6.9442L8.60668 8.87285L10.2693 11.5232H11.3229ZM11.9401 7.58517V6.73232H9.9484L11.3475 4.5H10.2855L8.60668 7.19239L6.92836 4.5H5.86636L7.2655 6.73232H5.27344V7.59358L11.9401 7.58517Z" fill="#CC8232"/>
<path d="M11.3214 11.5232L9.90646 9.26581H11.9394V8.41296H5.27344V9.26581H7.30564L5.88994 11.5232H6.94348L8.60596 8.87285L10.2686 11.5232H11.3214ZM11.9387 7.58517V6.73232H9.94768L11.3468 4.5H10.2848L8.60596 7.19221L6.9271 4.5H5.8651L7.26424 6.73232H5.27344V7.59358L11.9401 7.58517H11.9387Z" fill="#CC8232"/>
<path d="M11.3209 11.5232L9.90522 9.26581H11.9381V8.41296H5.27148V9.26581H7.3044L5.8887 11.5232H6.94224L8.604 8.87285L10.2667 11.5232H11.3209ZM11.9381 7.58517V6.73232H9.94645L11.3456 4.5H10.2836L8.604 7.19221L6.92586 4.5H5.86386L7.263 6.73232H5.27148V7.59358L11.9381 7.58517Z" fill="#CC8232"/>
<path d="M11.319 11.5232L9.90327 9.26581H11.9362V8.41296H5.26953V9.26581H7.30245L5.88675 11.5232H6.94029L8.60277 8.87285L10.2654 11.5232H11.319ZM11.9362 7.58517V6.73232H9.94449L11.3436 4.5H10.2816L8.60277 7.19221L6.92391 4.5H5.86191L7.26105 6.73232H5.26953V7.59358L11.9362 7.58517Z" fill="#CC8232"/>
<path d="M11.317 11.5232L9.90132 9.26599H11.9337V8.41296H5.26758V9.26599H7.3005L5.8857 11.5232H6.93924L8.60082 8.87285L10.2635 11.5232H11.317ZM11.9337 7.58517V6.73232H9.94254L11.3417 4.5H10.2797L8.60082 7.19221L6.92196 4.5H5.85996L7.2591 6.73232H5.26758V7.59358L11.9337 7.58517Z" fill="#CC8232"/>
<path d="M11.3151 11.5154L9.89955 9.25799H11.9323V8.40515H5.26562V9.25799H7.29855L5.88285 11.5154H6.93639L8.59888 8.86503L10.2615 11.5154H11.3151ZM11.9323 7.57772V6.72451H9.9406L11.3395 4.49219H10.2775L8.59888 7.18439L6.92002 4.49219H5.85802L7.25716 6.72451H5.26562V7.58576L11.9323 7.57772Z" fill="#CC8232"/>
<path d="M11.3131 11.5154L9.89741 9.25799H11.9303V8.40515H5.26367V9.25799H7.29659L5.88089 11.5154H6.93443L8.59691 8.86503L10.2594 11.5154H11.3131ZM11.9303 7.57735V6.72451H9.93863L11.3378 4.49219H10.2758L8.59691 7.18439L6.91805 4.49219H5.85605L7.25519 6.72451H5.26367V7.58576L11.9303 7.57735Z" fill="#CC8232"/>
<path d="M11.3131 11.5154L9.89741 9.25799H11.9303V8.40515H5.26367V9.25799H7.29659L5.88089 11.5154H6.93443L8.59691 8.86503L10.2596 11.5154H11.3131ZM11.9303 7.57735V6.72451H9.93863L11.3378 4.49219H10.2758L8.59691 7.18439L6.91805 4.49219H5.85605L7.25519 6.72451H5.26367V7.58576L11.9303 7.57735Z" fill="#CC8232"/>
<path d="M11.3073 11.5139L9.89155 9.25726H11.9245V8.40533H5.25781V9.25818H7.29073L5.87503 11.5139H6.92857L8.59105 8.8643L10.2537 11.5139H11.3073ZM11.9245 7.57589V6.72304H9.93313L11.3319 4.49219H10.2699L8.59105 7.18366L6.91219 4.49219H5.85019L7.24951 6.72304H5.25781V7.5843L11.9245 7.57589Z" fill="#CC8232"/>
<path d="M11.1823 11.3811L9.76655 9.12444H11.7995V8.27251H5.13281V9.12536H7.16573L5.75003 11.3811H6.80357L8.46605 8.73149L10.1287 11.3811H11.1823ZM11.7995 7.44308V6.59022H9.80813L11.2069 4.35938H10.1449L8.46605 7.05084L6.78719 4.35938H5.72519L7.12451 6.59022H5.13281V7.45149L11.7995 7.44308Z" fill="#E0E0E0"/>
<path d="M11.1842 11.3826L9.76851 9.12517H11.8014V8.27233H5.13477V9.12517H7.16769L5.75199 11.3826H6.80553L8.46801 8.73221L10.1307 11.3826H11.1842ZM11.8014 7.44453V6.59169H9.80973L11.2089 4.35938H10.1469L8.46801 7.05157L6.78915 4.35938H5.72715L7.12629 6.59169H5.13477V7.45295L11.8014 7.44453Z" fill="#E0E0E0"/>
<path d="M11.1862 11.3904L9.77046 9.13299H11.8034V8.28015H5.13672V9.13299H7.16964L5.75394 11.3904H6.80748L8.46996 8.74003L10.1324 11.3904H11.1862ZM11.8034 7.45235V6.59951H9.81168L11.2108 4.36719H10.1488L8.46996 7.05939L6.7911 4.36719H5.7291L7.12824 6.59951H5.13672V7.46076L11.8034 7.45235Z" fill="#E0E0E0"/>
<path d="M11.1901 11.3904L9.77455 9.13299H11.8073V8.28015H5.14062V9.13299H7.17355L5.75785 11.3904H6.81139L8.47388 8.74003L10.1365 11.3904H11.1901ZM11.8073 7.45272V6.59951H9.8156L11.2145 4.36719H10.1525L8.47388 7.05939L6.79502 4.36719H5.73302L7.13216 6.59951H5.14062V7.46076L11.8073 7.45272Z" fill="#E0E0E0"/>
<path d="M11.192 11.3904L9.77632 9.13318H11.8087V8.28015H5.14258V9.13318H7.1755L5.7607 11.3904H6.81424L8.47582 8.74003L10.1385 11.3904H11.192ZM11.8087 7.45235V6.59951H9.81754L11.2167 4.36719H10.1547L8.47582 7.05939L6.79696 4.36719H5.73496L7.1341 6.59951H5.14258V7.46077L11.8087 7.45235Z" fill="#E0E0E0"/>
<path d="M11.192 11.3904L9.77632 9.13299H11.8092V8.28015H5.14258V9.13299H7.1755L5.7598 11.3904H6.81334L8.47582 8.74003L10.1385 11.3904H11.192ZM11.8092 7.45235V6.59951H9.81754L11.2167 4.36719H10.1547L8.47582 7.05939L6.79696 4.36719H5.73496L7.1341 6.59951H5.14258V7.46077L11.8092 7.45235Z" fill="#E0E0E0"/>
<path d="M11.194 11.3982L9.77827 9.14081H11.8112V8.28796H5.14453V9.14081H7.17745L5.76175 11.3982H6.81529L8.47705 8.74785L10.1397 11.3982H11.194ZM11.8112 7.46017V6.60732H9.81949L11.2186 4.375H10.1566L8.47705 7.06721L6.79891 4.375H5.73691L7.13605 6.60732H5.14453V7.46858L11.8112 7.46017Z" fill="#E0E0E0"/>
<path d="M11.1964 11.3982L9.78146 9.14081H11.8144V8.28796H5.14844V9.14081H7.18064L5.76494 11.3982H6.81848L8.48096 8.74785L10.1436 11.3982H11.1964ZM11.8137 7.46017V6.60732H9.82268L11.2218 4.375H10.1598L8.48096 7.06721L6.8021 4.375H5.7401L7.13924 6.60732H5.14844V7.46858L11.8151 7.46017H11.8137Z" fill="#E0E0E0"/>
<path d="M11.1979 11.3982L9.78218 9.14081H11.8151V8.28796H5.14844V9.14081H7.18136L5.76566 11.3982H6.8192L8.48168 8.74785L10.1443 11.3982H11.1979ZM11.8151 7.46017V6.60732H9.8234L11.2225 4.375H10.1605L8.48168 7.06739L6.80336 4.375H5.74136L7.1405 6.60732H5.14844V7.46858L11.8151 7.46017Z" fill="#E0E0E0"/>
<path d="M11.1998 11.3982L9.78413 9.14081H11.8171V8.28796H5.15039V9.14081H7.18331L5.76761 11.3982H6.82151L8.48363 8.74785L10.1463 11.3982H11.1998ZM11.8171 7.46017V6.60732H9.82535L11.2245 4.375H10.1625L8.48363 7.06721L6.80477 4.375H5.74277L7.14191 6.60732H5.15039V7.46785L11.8171 7.45943V7.46017Z" fill="#E0E0E0"/>
<path d="M11.1998 11.3967L9.78413 9.14007H11.8171V8.28814H5.15039V9.14099H7.18331L5.76761 11.3967H6.82115L8.48363 8.74711L10.1463 11.3967H11.1998ZM11.8171 7.4587V6.60586H9.82571L11.2245 4.375H10.1625L8.48363 7.06647L6.80477 4.375H5.74277L7.14209 6.60586H5.15039V7.46711L11.8171 7.4587Z" fill="#E0E0E0"/>
<path d="M11.2018 11.406L9.78608 9.14862H11.819V8.29577H5.15234V9.14862H7.18526L5.76956 11.406H6.8231L8.48558 8.75566L10.1482 11.406H11.2018ZM11.819 7.46798V6.61513H9.8273L11.2264 4.38281H10.1644L8.48558 7.07502L6.80672 4.38281H5.74472L7.14386 6.61513H5.15234V7.47639L11.819 7.46798Z" fill="#E0E0E0"/>
<path d="M11.2057 11.406L9.78999 9.14862H11.8229V8.29577H5.15625V9.14862H7.18917L5.77347 11.406H6.82701L8.48949 8.75566L10.152 11.406H11.2057ZM11.8229 7.46798V6.61513H9.83121L11.2303 4.38281H10.1683L8.48949 7.07502L6.81063 4.38281H5.74863L7.14777 6.61513H5.15625V7.47639L11.8229 7.46798Z" fill="#E0E0E0"/>
<path d="M11.2076 11.406L9.79212 9.14862H11.8249V8.29577H5.1582V9.14862H7.19112L5.77542 11.406H6.82896L8.49144 8.75566L10.1541 11.406H11.2076ZM11.8249 7.46834V6.61513H9.83316L11.2321 4.38281H10.1701L8.49144 7.07502L6.81258 4.38281H5.75058L7.14972 6.61513H5.1582V7.47639L11.8249 7.46834Z" fill="#E0E0E0"/>
<path d="M11.2096 11.4138L9.7939 9.15662H11.8263V8.30359H5.16016V9.15662H7.19308L5.77828 11.4138H6.83182L8.4934 8.76347L10.1561 11.4138H11.2096ZM11.8263 7.47579V6.62296H9.83512L11.2343 4.39062H10.1723L8.4934 7.08283L6.81454 4.39062H5.75254L7.15168 6.62296H5.16016V7.48421L11.8263 7.47579Z" fill="#E0E0E0"/>
<path d="M11.2115 11.4138L9.79585 9.15644H11.8288V8.30359H5.16211V9.15644H7.19503L5.77933 11.4138H6.83287L8.49535 8.76347L10.158 11.4138H11.2115ZM11.8288 7.47579V6.62296H9.83707L11.2362 4.39062H10.1742L8.49535 7.08283L6.81649 4.39062H5.75449L7.15363 6.62296H5.16211V7.48421L11.8288 7.47579Z" fill="#E0E0E0"/>
<path d="M11.2115 11.4138L9.79585 9.15644H11.8288V8.30359H5.16211V9.15644H7.19503L5.77933 11.4138H6.83287L8.49463 8.76347L10.1573 11.4138H11.2115ZM11.8288 7.47579V6.62296H9.83707L11.2362 4.39062H10.1742L8.49463 7.08283L6.81649 4.39062H5.75449L7.15363 6.62296H5.16211V7.48421L11.8288 7.47579Z" fill="#E0E0E0"/>
<path d="M11.214 11.4138L9.79904 9.15644H11.832V8.30359H5.16602V9.15644H7.19822L5.78252 11.4138H6.83606L8.49854 8.76347L10.1612 11.4138H11.214ZM11.8312 7.47579V6.62295H9.84026L11.2394 4.39062H10.1774L8.49854 7.08283L6.81968 4.39062H5.75768L7.15682 6.62295H5.16602V7.48421L11.8327 7.47579H11.8312Z" fill="#E0E0E0"/>
<path d="M11.2155 11.4138L9.79976 9.15644H11.8327V8.30359H5.16602V9.15644H7.19894L5.78324 11.4138H6.83678L8.49926 8.76347L10.1619 11.4138H11.2155ZM11.8327 7.47579V6.62295H9.84098L11.2401 4.39062H10.1781L8.49926 7.08302L6.82094 4.39062H5.75894L7.15808 6.62295H5.16602V7.48421L11.8327 7.47579Z" fill="#E0E0E0"/>
<path d="M11.2174 11.4216L9.80171 9.16424H11.8346V8.3114H5.16797V9.16424H7.20089L5.78519 11.4216H6.83909L8.50121 8.77128L10.1639 11.4216H11.2174ZM11.8346 7.4836V6.63076H9.84293L11.2421 4.39844H10.1801L8.50121 7.09064L6.82235 4.39844H5.76035L7.15949 6.63076H5.16797V7.49128L11.8346 7.48287V7.4836Z" fill="#E0E0E0"/>
<path d="M11.2194 11.4202L9.80366 9.16351H11.8366V8.31158H5.16992V9.16443H7.20284L5.78714 11.4202H6.84068L8.50316 8.77055L10.1658 11.4202H11.2194ZM11.8366 7.48214V6.62929H9.84524L11.244 4.39844H10.182L8.50316 7.08991L6.8243 4.39844H5.7623L7.16162 6.62929H5.16992V7.49055L11.8366 7.48214Z" fill="#E0E0E0"/>
<path d="M11.2194 11.4216L9.80366 9.16424H11.8366V8.3114H5.16992V9.16424H7.20284L5.78714 11.4216H6.84068L8.50316 8.77128L10.1658 11.4216H11.2194ZM11.8366 7.4836V6.63076H9.84488L11.244 4.39844H10.182L8.50316 7.09064L6.8243 4.39844H5.7623L7.16144 6.63076H5.16992V7.49201L11.8366 7.4836Z" fill="#E0E0E0"/>
<path d="M11.2252 11.4216L9.80952 9.16424H11.8424V8.3114H5.17578V9.16424H7.2087L5.793 11.4216H6.84654L8.50902 8.77128L10.1715 11.4216H11.2252ZM11.8424 7.4836V6.63076H9.85074L11.2499 4.39844H10.1879L8.50902 7.09064L6.83016 4.39844H5.76816L7.1673 6.63076H5.17578V7.49201L11.8424 7.4836Z" fill="#E0E0E0"/>
<path d="M11.2252 11.4294L9.8097 9.17206H11.8424V8.31921H5.17578V9.17206H7.2087L5.793 11.4294H6.84654L8.50902 8.7791L10.1717 11.4294H11.2252ZM11.8424 7.49178V6.63857H9.85074L11.2497 4.40625H10.1877L8.50902 7.09846L6.83016 4.40625H5.76816L7.1673 6.63857H5.17578V7.49983L11.8424 7.49178Z" fill="#E0E0E0"/>
<path d="M11.2272 11.4294L9.81147 9.17224H11.8439V8.31921H5.17773V9.17224H7.21065L5.79585 11.4294H6.84939L8.51097 8.7791L10.1736 11.4294H11.2272ZM11.8439 7.49142V6.63857H9.85269L11.2518 4.40625H10.1898L8.51097 7.09846L6.83211 4.40625H5.77011L7.16925 6.63857H5.17773V7.49983L11.8439 7.49142Z" fill="#E0E0E0"/>
<path d="M11.2291 11.4294L9.81343 9.17206H11.8463V8.31921H5.17969V9.17206H7.21261L5.79691 11.4294H6.85045L8.51293 8.7791L10.1756 11.4294H11.2291ZM11.8463 7.49142V6.63857H9.85465L11.2538 4.40625H10.1918L8.51293 7.09846L6.83407 4.40625H5.77207L7.17121 6.63857H5.17969V7.49983L11.8463 7.49142Z" fill="#E0E0E0"/>
<path d="M11.2291 11.4294L9.81343 9.17206H11.8463V8.31921H5.17969V9.17206H7.21261L5.79691 11.4294H6.85045L8.51221 8.7791L10.1749 11.4294H11.2291ZM11.8463 7.49142V6.63857H9.85465L11.2538 4.40625H10.1918L8.51221 7.09846L6.83407 4.40625H5.77207L7.17121 6.63857H5.17969V7.49983L11.8463 7.49142Z" fill="#E0E0E0"/>
<path d="M11.2316 11.4294L9.81661 9.17206H11.8495V8.31921H5.18359V9.17206H7.21579L5.80009 11.4294H6.85363L8.51611 8.7791L10.1788 11.4294H11.2316ZM11.8488 7.49142V6.63857H9.85783L11.257 4.40625H10.195L8.51611 7.09846L6.83725 4.40625H5.77525L7.17439 6.63857H5.18359V7.49983L11.8503 7.49142H11.8488Z" fill="#E0E0E0"/>
<path d="M11.233 11.4372L9.81733 9.17987H11.8503V8.32702H5.18359V9.17987H7.21651L5.80081 11.4372H6.85435L8.51683 8.78691L10.1795 11.4372H11.233ZM11.8503 7.49923V6.64638H9.85855L11.2577 4.41406H10.1957L8.51683 7.10645L6.83851 4.41406H5.77651L7.17565 6.64638H5.18359V7.50764L11.8503 7.49923Z" fill="#E0E0E0"/>
<path d="M11.235 11.4372L9.81929 9.17987H11.8522V8.32702H5.18555V9.17987H7.21847L5.80277 11.4372H6.85667L8.51879 8.78691L10.1814 11.4372H11.235ZM11.8522 7.49923V6.64638H9.86051L11.2596 4.41406H10.1976L8.51879 7.10627L6.83993 4.41406H5.77793L7.17707 6.64638H5.18555V7.50691L11.8522 7.4985V7.49923Z" fill="#E0E0E0"/>
<path d="M11.2369 11.4358L9.82124 9.17914H11.8542V8.3272H5.1875V9.18005H7.22042L5.80472 11.4358H6.85826L8.52074 8.78618L10.1834 11.4358H11.2369ZM11.8542 7.49777V6.64492H9.86282L11.2616 4.41406H10.1996L8.52074 7.10554L6.84188 4.41406H5.77988L7.1792 6.64492H5.1875V7.50618L11.8542 7.49777Z" fill="#E0E0E0"/>
<path d="M11.2369 11.4451L9.82124 9.18767H11.8542V8.33483H5.1875V9.18767H7.22042L5.80472 11.4451H6.85826L8.52074 8.79471L10.1834 11.4451H11.2369ZM11.8542 7.50703V6.65419H9.86246L11.2616 4.42188H10.1996L8.52074 7.11407L6.84188 4.42188H5.77988L7.17902 6.65419H5.1875V7.51545L11.8542 7.50703Z" fill="#E0E0E0"/>
<path d="M11.2428 11.4451L9.8271 9.18767H11.86V8.33483H5.19336V9.18767H7.22628L5.81058 11.4451H6.86412L8.5266 8.79471L10.1891 11.4451H11.2428ZM11.86 7.50703V6.65419H9.86832L11.2675 4.42188H10.2055L8.5266 7.11407L6.84774 4.42188H5.78574L7.18488 6.65419H5.19336V7.51545L11.86 7.50703Z" fill="#E0E0E0"/>
<path d="M11.2428 11.4451L9.82728 9.18767H11.86V8.33483H5.19336V9.18767H7.22628L5.81058 11.4451H6.86412L8.5266 8.79471L10.1893 11.4451H11.2428ZM11.86 7.5074V6.65419H9.86832L11.2673 4.42188H10.2053L8.5266 7.11407L6.84774 4.42188H5.78574L7.18488 6.65419H5.19336V7.51545L11.86 7.5074Z" fill="#E0E0E0"/>
<path d="M11.2448 11.4451L9.82905 9.18785H11.8614V8.33483H5.19531V9.18785H7.22823L5.81343 11.4451H6.86697L8.52855 8.79471L10.1912 11.4451H11.2448ZM11.8614 7.50703V6.65419H9.87027L11.2694 4.42188H10.2074L8.52855 7.11407L6.84969 4.42188H5.78769L7.18683 6.65419H5.19531V7.51545L11.8614 7.50703Z" fill="#E0E0E0"/>
<path d="M11.2467 11.4451L9.83101 9.18767H11.8639V8.33483H5.19727V9.18767H7.23019L5.81449 11.4451H6.86803L8.53051 8.79471L10.1932 11.4451H11.2467ZM11.8639 7.50703V6.65419H9.87223L11.2714 4.42188H10.2094L8.53051 7.11407L6.85165 4.42188H5.78965L7.18879 6.65419H5.19727V7.51545L11.8639 7.50703Z" fill="#E0E0E0"/>
<path d="M11.2487 11.4529L9.83296 9.19549H11.8659V8.34265H5.19922V9.19549H7.23214L5.81644 11.4529H6.86998L8.53174 8.80253L10.1944 11.4529H11.2487ZM11.8659 7.51485V6.66201H9.87418L11.2733 4.42969H10.2113L8.53174 7.12189L6.8536 4.42969H5.7916L7.19074 6.66201H5.19922V7.52326L11.8659 7.51485Z" fill="#E0E0E0"/>
<path d="M11.2492 11.4529L9.83419 9.19549H11.8671V8.34265H5.20117V9.19549H7.23337L5.81767 11.4529H6.87121L8.53369 8.80253L10.1964 11.4529H11.2492ZM11.8664 7.51485V6.66201H9.87541L11.2746 4.42969H10.2126L8.53369 7.12189L6.85483 4.42969H5.79283L7.19197 6.66201H5.20117V7.52326L11.8678 7.51485H11.8664Z" fill="#E0E0E0"/>
<path d="M11.2526 11.4529L9.83687 9.19549H11.8698V8.34265H5.20312V9.19549H7.23605L5.82035 11.4529H6.87389L8.53638 8.80253L10.199 11.4529H11.2526ZM11.8698 7.51485V6.66201H9.8781L11.2772 4.42969H10.2152L8.53638 7.12208L6.85805 4.42969H5.79605L7.19519 6.66201H5.20312V7.52326L11.8698 7.51485Z" fill="#E0E0E0"/>
<path d="M11.2526 11.4529L9.83687 9.19549H11.8698V8.34265H5.20312V9.19549H7.23604L5.82035 11.4529H6.87425L8.53637 8.80253L10.199 11.4529H11.2526ZM11.8698 7.51485V6.66201H9.87809L11.2772 4.42969H10.2152L8.53637 7.12189L6.85752 4.42969H5.79552L7.19465 6.66201H5.20312V7.52253L11.8698 7.51412V7.51485Z" fill="#E0E0E0"/>
<path d="M11.2545 11.4592L9.83882 9.20257H11.8717V8.35064H5.20508V9.20349H7.238L5.8223 11.4592H6.87584L8.53832 8.80961L10.201 11.4592H11.2545ZM11.8717 7.5212V6.66836H9.8804L11.2792 4.4375H10.2172L8.53832 7.12897L6.85946 4.4375H5.79746L7.19678 6.66836H5.20508V7.52961L11.8717 7.5212Z" fill="#E0E0E0"/>
<path d="M11.2565 11.4607L9.84077 9.20331H11.8737V8.35046H5.20703V9.20331H7.23995L5.82425 11.4607H6.87779L8.54027 8.81035L10.2029 11.4607H11.2565ZM11.8737 7.52267V6.66982H9.88199L11.2811 4.4375H10.2191L8.54027 7.12971L6.86141 4.4375H5.79941L7.19855 6.66982H5.20703V7.53108L11.8737 7.52267Z" fill="#E0E0E0"/>
<path d="M11.2604 11.4607L9.84468 9.20331H11.8776V8.35046H5.21094V9.20331H7.24386L5.82816 11.4607H6.8817L8.54418 8.81035L10.2067 11.4607H11.2604ZM11.8776 7.52267V6.66982H9.8859L11.285 4.4375H10.223L8.54418 7.12971L6.86532 4.4375H5.80332L7.20246 6.66982H5.21094V7.53108L11.8776 7.52267Z" fill="#E0E0E0"/>
<path d="M11.2623 11.4607L9.84681 9.20331H11.8796V8.35046H5.21289V9.20331H7.24581L5.83011 11.4607H6.88365L8.54613 8.81035L10.2088 11.4607H11.2623ZM11.8796 7.52303V6.66982H9.88785L11.2868 4.4375H10.2248L8.54613 7.12971L6.86727 4.4375H5.80527L7.20441 6.66982H5.21289V7.53108L11.8796 7.52303Z" fill="#E0E0E0"/>
<path d="M11.2643 11.4607L9.84858 9.20349H11.881V8.35046H5.21484V9.20349H7.24776L5.83296 11.4607H6.8865L8.54808 8.81035L10.2107 11.4607H11.2643ZM11.881 7.52267V6.66982H9.8898L11.2889 4.4375H10.2269L8.54808 7.12971L6.86922 4.4375H5.80722L7.20636 6.66982H5.21484V7.53108L11.881 7.52267Z" fill="#E0E0E0"/>
<path d="M11.2643 11.4685L9.84858 9.21112H11.8815V8.35827H5.21484V9.21112H7.24776L5.83206 11.4685H6.8856L8.54808 8.81816L10.2107 11.4685H11.2643ZM11.8815 7.53048V6.67763H9.8898L11.2889 4.44531H10.2269L8.54808 7.13752L6.86922 4.44531H5.80722L7.20636 6.67763H5.21484V7.53889L11.8815 7.53048Z" fill="#E0E0E0"/>
<path d="M11.2662 11.4685L9.85054 9.21112H11.8835V8.35827H5.2168V9.21112H7.24972L5.83402 11.4685H6.88756L8.54932 8.81816L10.212 11.4685H11.2662ZM11.8835 7.53048V6.67763H9.89176L11.2909 4.44531H10.2289L8.54932 7.13752L6.87118 4.44531H5.80918L7.20832 6.67763H5.2168V7.53889L11.8835 7.53048Z" fill="#E0E0E0"/>
<path d="M11.2668 11.4685L9.85177 9.21112H11.8847V8.35827H5.21875V9.21112H7.25095L5.83525 11.4685H6.88879L8.55127 8.81816L10.2139 11.4685H11.2668ZM11.884 7.53048V6.67763H9.89299L11.2921 4.44531H10.2301L8.55127 7.13752L6.87241 4.44531H5.81041L7.20955 6.67763H5.21875V7.53889L11.8854 7.53048H11.884Z" fill="#E0E0E0"/>
<path d="M11.2701 11.4763L9.85444 9.21894H11.8874V8.36609H5.2207V9.21894H7.25362L5.83792 11.4763H6.89146L8.55394 8.82597L10.2166 11.4763H11.2701ZM11.8874 7.53829V6.68545H9.89566L11.2948 4.45312H10.2328L8.55394 7.14552L6.87562 4.45312H5.81362L7.21276 6.68545H5.2207V7.54671L11.8874 7.53829Z" fill="#E0E0E0"/>
<path d="M11.2701 11.4763L9.85444 9.21894H11.8874V8.36609H5.2207V9.21894H7.25362L5.83792 11.4763H6.89182L8.55394 8.82597L10.2166 11.4763H11.2701ZM11.8874 7.53829V6.68546H9.89566L11.2948 4.45312H10.2328L8.55394 7.14533L6.87508 4.45312H5.81308L7.21222 6.68546H5.2207V7.54598L11.8874 7.53757V7.53829Z" fill="#E0E0E0"/>
<path d="M11.2721 11.4748L9.8564 9.2182H11.8893V8.36627H5.22266V9.21912H7.25558L5.83988 11.4748H6.89342L8.5559 8.82525L10.2186 11.4748H11.2721ZM11.8893 7.53684V6.68398H9.89798L11.2968 4.45312H10.2348L8.5559 7.1446L6.87704 4.45312H5.81504L7.21436 6.68398H5.22266V7.54524L11.8893 7.53684Z" fill="#E0E0E0"/>
<path d="M11.276 11.4763L9.8603 9.21894H11.8932V8.36609H5.22656V9.21894H7.25948L5.84378 11.4763H6.89732L8.5598 8.82597L10.2225 11.4763H11.276ZM11.8932 7.53829V6.68546H9.90152L11.3007 4.45312H10.2387L8.5598 7.14533L6.88094 4.45312H5.81894L7.21808 6.68546H5.22656V7.54671L11.8932 7.53829Z" fill="#E0E0E0"/>
<path d="M11.278 11.4763L9.86226 9.21894H11.8952V8.36609H5.22852V9.21894H7.26144L5.84574 11.4763H6.89928L8.56176 8.82597L10.2242 11.4763H11.278ZM11.8952 7.53829V6.68545H9.90348L11.3026 4.45312H10.2406L8.56176 7.14533L6.8829 4.45312H5.8209L7.22004 6.68545H5.22852V7.54671L11.8952 7.53829Z" fill="#E0E0E0"/>
<path d="M11.2799 11.4763L9.86439 9.21894H11.8971V8.36609H5.23047V9.21894H7.26339L5.84769 11.4763H6.90123L8.56371 8.82597L10.2264 11.4763H11.2799ZM11.8971 7.53866V6.68545H9.90543L11.3044 4.45312H10.2424L8.56371 7.14533L6.88485 4.45312H5.82285L7.22199 6.68545H5.23047V7.54671L11.8971 7.53866Z" fill="#E0E0E0"/>
<path d="M11.2799 11.4841L9.86421 9.22693H11.8966V8.3739H5.23047V9.22693H7.26339L5.84859 11.4841H6.90213L8.56371 8.83378L10.2264 11.4841H11.2799ZM11.8966 7.5461V6.69326H9.90543L11.3046 4.46094H10.2426L8.56371 7.15314L6.88485 4.46094H5.82285L7.22199 6.69326H5.23047V7.55452L11.8966 7.5461Z" fill="#E0E0E0"/>
<path d="M11.2819 11.4841L9.86616 9.22674H11.8991V8.3739H5.23242V9.22674H7.26534L5.84964 11.4841H6.90318L8.56566 8.83378L10.2283 11.4841H11.2819ZM11.8991 7.5461V6.69326H9.90738L11.3065 4.46094H10.2445L8.56566 7.15314L6.8868 4.46094H5.8248L7.22394 6.69326H5.23242V7.55452L11.8991 7.5461Z" fill="#E0E0E0"/>
<path d="M11.2838 11.4841L9.86811 9.22674H11.901V8.3739H5.23438V9.22674H7.26729L5.85159 11.4841H6.90514L8.5669 8.83378L10.2296 11.4841H11.2838ZM11.901 7.5461V6.69326H9.90934L11.3085 4.46094H10.2465L8.5669 7.15314L6.88876 4.46094H5.82676L7.2259 6.69326H5.23438V7.55451L11.901 7.5461Z" fill="#E0E0E0"/>
<path d="M11.2843 11.4919L9.86935 9.23456H11.9023V8.38171H5.23633V9.23456H7.26853L5.85283 11.4919H6.90637L8.56885 8.8416L10.2315 11.4919H11.2843ZM11.9015 7.55392V6.70107H9.91057L11.3097 4.46875H10.2477L8.56885 7.16096L6.88999 4.46875H5.82799L7.22713 6.70107H5.23633V7.56233L11.903 7.55392H11.9015Z" fill="#E0E0E0"/>
<path d="M11.2877 11.4919L9.87202 9.23456H11.9049V8.38171H5.23828V9.23456H7.2712L5.8555 11.4919H6.90904L8.57152 8.8416L10.2342 11.4919H11.2877ZM11.9049 7.55392V6.70107H9.91324L11.3124 4.46875H10.2504L8.57152 7.16114L6.8932 4.46875H5.8312L7.23034 6.70107H5.23828V7.56233L11.9049 7.55392Z" fill="#E0E0E0"/>
<path d="M11.2897 11.4919L9.87397 9.23456H11.9069V8.38171H5.24023V9.23456H7.27315L5.85745 11.4919H6.91135L8.57347 8.8416L10.2361 11.4919H11.2897ZM11.9069 7.55392V6.70107H9.91519L11.3143 4.46875H10.2523L8.57347 7.16096L6.89461 4.46875H5.83261L7.23175 6.70107H5.24023V7.5616L11.9069 7.55318V7.55392Z" fill="#E0E0E0"/>
<path d="M11.2897 11.4905L9.87397 9.23382H11.9069V8.38189H5.24023V9.23474H7.27315L5.85745 11.4905H6.91099L8.57347 8.84086L10.2361 11.4905H11.2897ZM11.9069 7.55245V6.69961H9.91555L11.3143 4.46875H10.2523L8.57347 7.16022L6.89461 4.46875H5.83261L7.23193 6.69961H5.24023V7.56086L11.9069 7.55245Z" fill="#E0E0E0"/>
<path d="M11.2916 11.4919L9.87593 9.23456H11.9088V8.38171H5.24219V9.23456H7.27511L5.85941 11.4919H6.91295L8.57543 8.8416L10.2381 11.4919H11.2916ZM11.9088 7.55392V6.70107H9.91715L11.3163 4.46875H10.2543L8.57543 7.16096L6.89657 4.46875H5.83457L7.23371 6.70107H5.24219V7.56233L11.9088 7.55392Z" fill="#E0E0E0"/>
<path d="M11.2955 11.4997L9.87983 9.24237H11.9128V8.38952H5.24609V9.24237H7.27901L5.86331 11.4997H6.91685L8.57933 8.84941L10.2418 11.4997H11.2955ZM11.9128 7.56173V6.70888H9.92105L11.3202 4.47656H10.2582L8.57933 7.16877L6.90047 4.47656H5.83847L7.23761 6.70888H5.24609V7.57014L11.9128 7.56173Z" fill="#E0E0E0"/>
<path d="M11.2975 11.4997L9.88197 9.24237H11.9147V8.38952H5.24805V9.24237H7.28097L5.86527 11.4997H6.91881L8.58129 8.84941L10.2439 11.4997H11.2975ZM11.9147 7.56209V6.70888H9.92301L11.322 4.47656H10.26L8.58129 7.16877L6.90243 4.47656H5.84043L7.23957 6.70888H5.24805V7.57014L11.9147 7.56209Z" fill="#E0E0E0"/>
<path d="M11.2994 11.4997L9.88374 9.24255H11.9161V8.38952H5.25V9.24255H7.28292L5.86812 11.4997H6.92166L8.58324 8.84941L10.2459 11.4997H11.2994ZM11.9161 7.56173V6.70888H9.92496L11.3241 4.47656H10.2621L8.58324 7.16877L6.90438 4.47656H5.84238L7.24152 6.70888H5.25V7.57014L11.9161 7.56173Z" fill="#E0E0E0"/>
<path d="M11.2994 11.4997L9.88374 9.24237H11.9167V8.38952H5.25V9.24237H7.28292L5.86722 11.4997H6.92076L8.58324 8.84941L10.2459 11.4997H11.2994ZM11.9167 7.56173V6.70888H9.92496L11.3241 4.47656H10.2621L8.58324 7.16877L6.90438 4.47656H5.84238L7.24152 6.70888H5.25V7.57014L11.9167 7.56173Z" fill="#E0E0E0"/>
<path d="M11.3033 11.5076L9.88765 9.25017H11.9206V8.39733H5.25391V9.25017H7.28683L5.87113 11.5076H6.92467L8.58643 8.85721L10.2491 11.5076H11.3033ZM11.9206 7.56953V6.71669H9.92887L11.328 4.48438H10.266L8.58643 7.17657L6.90829 4.48438H5.84629L7.24543 6.71669H5.25391V7.57795L11.9206 7.56953Z" fill="#E0E0E0"/>
<path d="M11.3039 11.5076L9.88888 9.25017H11.9218V8.39733H5.25586V9.25017H7.28806L5.87236 11.5076H6.9259L8.58838 8.85721L10.251 11.5076H11.3039ZM11.9211 7.56953V6.71669H9.9301L11.3292 4.48438H10.2672L8.58838 7.17657L6.90952 4.48438H5.84752L7.24666 6.71669H5.25586V7.57795L11.9225 7.56953H11.9211Z" fill="#E0E0E0"/>
<path d="M11.3053 11.5076L9.8896 9.25017H11.9225V8.39733H5.25586V9.25017H7.28878L5.87308 11.5076H6.92662L8.5891 8.85721L10.2518 11.5076H11.3053ZM11.9225 7.56953V6.71669H9.93082L11.33 4.48438H10.268L8.5891 7.17675L6.91078 4.48438H5.84878L7.24792 6.71669H5.25586V7.57795L11.9225 7.56953Z" fill="#E0E0E0"/>
<path d="M11.3073 11.5076L9.89155 9.25017H11.9245V8.39733H5.25781V9.25017H7.29073L5.87503 11.5076H6.92893L8.59105 8.85721L10.2537 11.5076H11.3073ZM11.9245 7.56953V6.71669H9.93277L11.3319 4.48438H10.2699L8.59105 7.17657L6.91219 4.48438H5.85019L7.24933 6.71669H5.25781V7.57721L11.9245 7.56881V7.56953Z" fill="#E0E0E0"/>
<path d="M11.3073 11.5139L9.89155 9.25726H11.9245V8.40533H5.25781V9.25818H7.29073L5.87503 11.5139H6.92857L8.59105 8.8643L10.2537 11.5139H11.3073ZM11.9245 7.57589V6.72304H9.93313L11.3319 4.49219H10.2699L8.59105 7.18366L6.91219 4.49219H5.85019L7.24951 6.72304H5.25781V7.5843L11.9245 7.57589Z" fill="#E0E0E0"/>
<path d="M11.3073 11.5139L9.89155 9.25726H11.9245V8.40533H5.25781V9.25818H7.29073L5.87503 11.5139H6.92857L8.59105 8.8643L10.2537 11.5139H11.3073ZM11.9245 7.57589V6.72304H9.93313L11.3319 4.49219H10.2699L8.59105 7.18366L6.91219 4.49219H5.85019L7.24951 6.72304H5.25781V7.5843L11.9245 7.57589Z" fill="#DFC805"/>
</g>
<defs>
<clipPath id="clip0_1_66">
<rect width="18" height="16" fill="white"/>
</clipPath>
</defs>
</svg>
