<svg width="20" height="17" viewBox="0 0 20 17" fill="none" xmlns="http://www.w3.org/2000/svg">
<path d="M6.26667 16.2271C8.66667 16.2271 10.8 15.6271 12.6667 14.4271C14.3556 13.3159 15.6667 11.8493 16.6 10.0271C17.4889 8.24927 17.9333 6.42705 17.9333 4.56038V4.02705C18.7333 3.44927 19.4222 2.73816 20 1.89372C19.2444 2.24927 18.4667 2.47149 17.6667 2.56038C18.5556 2.02705 19.1556 1.27149 19.4667 0.293716C18.6222 0.782605 17.7556 1.11594 16.8667 1.29372C16.2 0.62705 15.4111 0.215939 14.5 0.0603828C13.5889 -0.0951729 12.7222 0.0492725 11.9 0.493716C11.0778 0.938161 10.4778 1.58261 10.1 2.42705C9.72222 3.27149 9.64445 4.13816 9.86667 5.02705C8.22222 4.93816 6.65556 4.52705 5.16667 3.79372C3.67778 3.06038 2.42222 2.04927 1.4 0.760384C0.866667 1.69372 0.722222 2.68261 0.966667 3.72705C1.21111 4.77149 1.77778 5.60483 2.66667 6.22705C2 6.18261 1.37778 6.00483 0.8 5.69372V5.76038C0.8 6.73816 1.11111 7.60483 1.73333 8.36038C2.35556 9.11594 3.13333 9.58261 4.06667 9.76038C3.71111 9.89372 3.35556 9.96038 3 9.96038C2.73333 9.96038 2.48889 9.93816 2.26667 9.89372C2.53333 10.6937 3.01111 11.3604 3.7 11.8937C4.38889 12.4271 5.17778 12.6937 6.06667 12.6937C5.35556 13.2715 4.55556 13.7159 3.66667 14.0271C2.77778 14.3382 1.88889 14.4937 1 14.4937C0.644444 14.4937 0.311111 14.4715 0 14.4271C1.91111 15.6271 4 16.2271 6.26667 16.2271Z" fill="#377DFF"/>
</svg>
