<svg width="58" height="18" viewBox="0 0 58 18" fill="none" xmlns="http://www.w3.org/2000/svg">
<path d="M4.70001 16.2C3.68601 16.2 2.80004 16 2.04004 15.6C1.29304 15.2 0.613 14.613 0 13.84L1.54004 12.3C1.92604 12.86 2.38002 13.313 2.90002 13.66C3.42002 14.007 4.04603 14.18 4.78003 14.18C5.55303 14.18 6.166 14.013 6.62 13.68C7.086 13.347 7.32001 12.873 7.32001 12.26C7.32001 11.793 7.20002 11.413 6.96002 11.12C6.72002 10.827 6.4 10.587 6 10.4C5.613 10.2 5.18001 10.027 4.70001 9.88C4.23301 9.72001 3.76003 9.54699 3.28003 9.35999C2.81303 9.15999 2.37998 8.913 1.97998 8.62C1.59298 8.32699 1.28004 7.94701 1.04004 7.48001C0.800039 7.01301 0.679993 6.42001 0.679993 5.70001C0.679993 4.87301 0.880029 4.17301 1.28003 3.60001C1.69303 3.01301 2.246 2.56701 2.94 2.26001C3.633 1.95301 4.40601 1.79999 5.26001 1.79999C6.08601 1.79999 6.853 1.98 7.56 2.34C8.266 2.7 8.84599 3.16 9.29999 3.72L7.76001 5.26001C7.36001 4.80701 6.94602 4.45301 6.52002 4.20001C6.10602 3.94701 5.66601 3.82001 5.20001 3.82001C4.45301 3.82001 3.87998 3.96701 3.47998 4.26001C3.07998 4.54001 2.88 4.96701 2.88 5.54001C2.88 5.96701 2.99999 6.31299 3.23999 6.57999C3.49299 6.83299 3.82003 7.05299 4.22003 7.23999C4.62003 7.41299 5.05302 7.57999 5.52002 7.73999C6.00002 7.89999 6.48002 8.08 6.96002 8.28C7.44002 8.48 7.88003 8.74 8.28003 9.06C8.68003 9.367 8.99999 9.76701 9.23999 10.26C9.49299 10.753 9.62 11.373 9.62 12.12C9.62 13.373 9.17303 14.367 8.28003 15.1C7.40003 15.833 6.20601 16.2 4.70001 16.2ZM4.38 18V0H5.97998V18H4.38ZM13.936 10.72V8.72H17.436C17.916 8.72 18.336 8.627 18.696 8.44C19.07 8.24 19.363 7.967 19.576 7.62C19.79 7.25999 19.896 6.83999 19.896 6.35999C19.896 5.87999 19.79 5.467 19.576 5.12C19.363 4.75999 19.07 4.48699 18.696 4.29999C18.336 4.09999 17.916 4 17.436 4H13.936V2H17.556C18.436 2 19.223 2.18001 19.916 2.54001C20.623 2.90001 21.176 3.407 21.576 4.06C21.99 4.713 22.196 5.47999 22.196 6.35999C22.196 7.23999 21.99 8.007 21.576 8.66C21.176 9.313 20.623 9.81999 19.916 10.18C19.223 10.54 18.436 10.72 17.556 10.72H13.936ZM12.356 16V2H14.656V16H12.356ZM24.387 16V2H26.687V16H24.387ZM25.967 16V13.9H33.807V16H25.967ZM25.967 9.85999V7.84H33.127V9.85999H25.967ZM25.967 4.10001V2H33.707V4.10001H25.967ZM37.881 10.72V8.72H41.381C41.861 8.72 42.281 8.627 42.641 8.44C43.015 8.24 43.308 7.967 43.521 7.62C43.735 7.25999 43.841 6.83999 43.841 6.35999C43.841 5.87999 43.735 5.467 43.521 5.12C43.308 4.75999 43.015 4.48699 42.641 4.29999C42.281 4.09999 41.861 4 41.381 4H37.881V2H41.501C42.381 2 43.168 2.18001 43.861 2.54001C44.568 2.90001 45.121 3.407 45.521 4.06C45.935 4.713 46.141 5.47999 46.141 6.35999C46.141 7.23999 45.935 8.007 45.521 8.66C45.121 9.313 44.568 9.81999 43.861 10.18C43.168 10.54 42.381 10.72 41.501 10.72H37.881ZM36.301 16V2H38.601V16H36.301ZM48.332 16V2H50.632V16H48.332ZM49.912 16V13.9H57.752V16H49.912ZM49.912 9.85999V7.84H57.072V9.85999H49.912ZM49.912 4.10001V2H57.652V4.10001H49.912Z" fill="#4C9641"/>
</svg>
