<svg width="20" height="20" viewBox="0 0 20 20" fill="none" xmlns="http://www.w3.org/2000/svg">
<path d="M20 10C20 11.8222 19.5556 13.5 18.6667 15.0333C17.7778 16.5667 16.5667 17.7778 15.0333 18.6667C13.5 19.5556 11.8222 20 10 20C8.17778 20 6.5 19.5556 4.96667 18.6667C3.43333 17.7778 2.22222 16.5667 1.33333 15.0333C0.444444 13.5 0 11.8222 0 10C0 8.17778 0.444444 6.5 1.33333 4.96667C2.22222 3.43333 3.43333 2.22222 4.96667 1.33333C6.5 0.444443 8.17778 -1.90735e-06 10 -1.90735e-06C11.8222 -1.90735e-06 13.5 0.444443 15.0333 1.33333C16.5667 2.22222 17.7778 3.43333 18.6667 4.96667C19.5556 6.5 20 8.17778 20 10ZM10.3333 7.4C9.35556 7.8 7.42222 8.62222 4.53333 9.86667C4.04444 10.0889 3.78889 10.2778 3.76667 10.4333C3.74444 10.5889 3.8 10.7 3.93333 10.7667C4.06667 10.8333 4.31111 10.9333 4.66667 11.0667L4.86667 11.1333C5.57778 11.3556 6.1 11.4667 6.43333 11.4667C6.76667 11.4667 7.13333 11.3333 7.53333 11.0667C10.2444 9.24444 11.6444 8.32222 11.7333 8.3C11.8222 8.27778 11.8889 8.28889 11.9333 8.33333C11.9778 8.37778 11.9889 8.44444 11.9667 8.53333C11.9444 8.62222 11.2 9.35555 9.73333 10.7333L9 11.4C8.68889 11.6667 8.51111 11.9 8.46667 12.1C8.42222 12.3 8.6 12.5111 9 12.7333L11.6 14.4667C11.8667 14.6889 12.0889 14.8444 12.2667 14.9333C12.4444 15.0222 12.6222 15.0444 12.8 15C13.1556 15 13.4 14.6667 13.5333 14C13.7111 12.8889 13.9111 11.6667 14.1333 10.3333C14.4 8.68889 14.5778 7.51111 14.6667 6.8C14.6667 6.66667 14.6556 6.54444 14.6333 6.43333C14.6111 6.32222 14.5556 6.22222 14.4667 6.13333C14.3778 6.04444 14.2444 6 14.0667 6C13.8889 6 13.5667 6.08889 13.1 6.26667C12.6333 6.44444 11.7111 6.82222 10.3333 7.4Z" fill="#377DFF"/>
</svg>
