<svg width="14" height="14" viewBox="0 0 14 14" fill="none" xmlns="http://www.w3.org/2000/svg">
<path d="M7 13.1133C5.88 13.1133 4.85333 12.8411 3.92 12.2967C2.98667 11.7522 2.24778 11.0133 1.70333 10.08C1.15889 9.14667 0.886667 8.12 0.886667 7C0.886667 5.88 1.15889 4.85333 1.70333 3.92C2.24778 2.98667 2.98667 2.24778 3.92 1.70333C4.85333 1.15889 5.88 0.886666 7 0.886666C8.12 0.886666 9.14667 1.15889 10.08 1.70333C11.0133 2.24778 11.7522 2.98667 12.2967 3.92C12.8411 4.85333 13.1133 5.88 13.1133 7C13.1133 8.12 12.8411 9.14667 12.2967 10.08C11.7522 11.0133 11.0133 11.7522 10.08 12.2967C9.14667 12.8411 8.12 13.1133 7 13.1133ZM7 14C8.27556 14 9.45 13.6889 10.5233 13.0667C11.5967 12.4444 12.4444 11.5967 13.0667 10.5233C13.6889 9.45 14 8.27556 14 7C14 5.72444 13.6889 4.55 13.0667 3.47667C12.4444 2.40333 11.5967 1.55556 10.5233 0.933333C9.45 0.311111 8.27556 0 7 0C5.72444 0 4.55 0.311111 3.47667 0.933333C2.40333 1.55556 1.55556 2.40333 0.933333 3.47667C0.311111 4.55 0 5.72444 0 7C0 8.27556 0.311111 9.45 0.933333 10.5233C1.55556 11.5967 2.40333 12.4444 3.47667 13.0667C4.55 13.6889 5.72444 14 7 14ZM7.79333 5.78667L5.83333 6.02L5.74 6.34667L6.11333 6.44C6.26889 6.47111 6.36222 6.51 6.39333 6.55667C6.42444 6.60333 6.42444 6.68889 6.39333 6.81333L5.74 9.84667C5.58444 10.6244 5.81778 11.0133 6.44 11.0133C6.68889 11.0133 6.93778 10.9667 7.18667 10.8733C7.43556 10.78 7.62222 10.6556 7.74667 10.5L7.79333 10.1267C7.63778 10.2822 7.44333 10.36 7.21 10.36C6.97667 10.36 6.89111 10.2044 6.95333 9.89333L7.79333 5.78667ZM7.88667 3.92C7.88667 4.16889 7.80111 4.37889 7.63 4.55C7.45889 4.72111 7.24889 4.80667 7 4.80667C6.75111 4.80667 6.54111 4.72111 6.37 4.55C6.19889 4.37889 6.11333 4.17667 6.11333 3.94333C6.11333 3.71 6.19889 3.50778 6.37 3.33667C6.54111 3.16556 6.75111 3.08 7 3.08C7.24889 3.08 7.45889 3.16556 7.63 3.33667C7.80111 3.50778 7.88667 3.70222 7.88667 3.92Z" fill="white" fill-opacity="0.4"/>
</svg>
