<svg width="20" height="20" viewBox="0 0 20 20" fill="none" xmlns="http://www.w3.org/2000/svg">
<path d="M10 -1.90735e-06C8.17778 -1.90735e-06 6.5 0.444443 4.96667 1.33333C3.43333 2.22222 2.22222 3.43333 1.33333 4.96667C0.444444 6.5 0 8.17778 0 10C0 11.8222 0.444444 13.5 1.33333 15.0333C2.22222 16.5667 3.43333 17.7778 4.96667 18.6667C6.5 19.5556 8.17778 20 10 20C11.8222 20 13.5 19.5556 15.0333 18.6667C16.5667 17.7778 17.7778 16.5667 18.6667 15.0333C19.5556 13.5 20 11.8222 20 10C20 8.17778 19.5556 6.5 18.6667 4.96667C17.7778 3.43333 16.5667 2.22222 15.0333 1.33333C13.5 0.444443 11.8222 -1.90735e-06 10 -1.90735e-06ZM14.6 14.4C14.5111 14.5778 14.3778 14.6778 14.2 14.7C14.0222 14.7222 13.8667 14.6889 13.7333 14.6C11.3778 13.1778 8.44444 12.8667 4.93333 13.6667C4.75556 13.7111 4.6 13.6889 4.46667 13.6C4.33333 13.5111 4.24444 13.3778 4.2 13.2C4.15556 13.0222 4.17778 12.8667 4.26667 12.7333C4.35556 12.6 4.48889 12.5111 4.66667 12.4667C8.48889 11.5778 11.7333 11.9333 14.4 13.5333C14.5333 13.6222 14.6222 13.7556 14.6667 13.9333C14.7111 14.1111 14.6889 14.2667 14.6 14.4ZM15.8 11.6667C15.7111 11.8889 15.5556 12.0222 15.3333 12.0667C15.1111 12.1111 14.9111 12.0667 14.7333 11.9333C13.4 11.1333 11.8 10.6222 9.93333 10.4C8.06667 10.1778 6.35556 10.3111 4.8 10.8C4.57778 10.8444 4.37778 10.8111 4.2 10.7C4.02222 10.5889 3.9 10.4333 3.83333 10.2333C3.76667 10.0333 3.77778 9.84444 3.86667 9.66667C3.95556 9.48889 4.11111 9.35555 4.33333 9.26667C6.15556 8.73333 8.1 8.58889 10.1667 8.83333C12.2333 9.07778 14.0222 9.66667 15.5333 10.6C15.7111 10.7333 15.8333 10.9 15.9 11.1C15.9667 11.3 15.9333 11.5111 15.8 11.7333V11.6667ZM15.9333 8.86667C14.9111 8.24444 13.6444 7.8 12.1333 7.53333C10.8 7.26667 9.42222 7.14444 8 7.16667C6.57778 7.18889 5.33333 7.37778 4.26667 7.73333C3.95556 7.82222 3.66667 7.74444 3.4 7.5C3.13333 7.25556 3.04444 6.95555 3.13333 6.6C3.22222 6.24444 3.42222 6.02222 3.73333 5.93333C4.93333 5.57778 6.33333 5.36667 7.93333 5.3C9.53333 5.23333 11.0889 5.35555 12.6 5.66667C14.2444 6.02222 15.6667 6.55555 16.8667 7.26667C17.0889 7.4 17.2333 7.58889 17.3 7.83333C17.3667 8.07778 17.3333 8.31111 17.2 8.53333C17.0667 8.75556 16.8778 8.9 16.6333 8.96667C16.3889 9.03333 16.1556 9 15.9333 8.86667Z" fill="#01FF01"/>
</svg>
