<svg width="12" height="12" viewBox="0 0 12 12" fill="none" xmlns="http://www.w3.org/2000/svg">
<path d="M6.48 2.64C6.48 2.53333 6.44 2.44 6.36 2.36C6.28 2.28 6.2 2.24 6.12 2.24H1.12C0.8 2.24 0.533333 2.35333 0.32 2.58C0.106667 2.80667 0 3.06667 0 3.36V10.88C0 11.2 0.106667 11.4667 0.32 11.68C0.533333 11.8933 0.8 12 1.12 12H8.64C8.93333 12 9.19333 11.8933 9.42 11.68C9.64667 11.4667 9.76 11.2 9.76 10.88V5.88C9.76 5.8 9.72 5.72 9.64 5.64C9.56 5.56 9.46667 5.52 9.36 5.52C9.25333 5.52 9.16667 5.56 9.1 5.64C9.03333 5.72 9 5.8 9 5.88V10.88C9 10.9867 8.96667 11.0733 8.9 11.14C8.83333 11.2067 8.74667 11.24 8.64 11.24H1.12C1.01333 11.24 0.926667 11.2067 0.86 11.14C0.793333 11.0733 0.76 10.9867 0.76 10.88V3.36C0.76 3.25333 0.793333 3.16667 0.86 3.1C0.926667 3.03333 1.01333 3 1.12 3H6.12C6.2 3 6.28 2.96667 6.36 2.9C6.44 2.83333 6.48 2.74667 6.48 2.64ZM12 0.360001C12 0.253334 11.9667 0.166667 11.9 0.1C11.8333 0.0333338 11.7467 0 11.64 0H7.88C7.77333 0 7.68 0.0333338 7.6 0.1C7.52 0.166667 7.48667 0.253334 7.5 0.360001C7.51333 0.466667 7.55333 0.56 7.62 0.64C7.68667 0.72 7.77333 0.76 7.88 0.76H10.72L4.6 6.84C4.52 6.92 4.48 7.01333 4.48 7.12C4.48 7.22667 4.52 7.32 4.6 7.4C4.68 7.48 4.77333 7.52 4.88 7.52C4.98667 7.52 5.08 7.48 5.16 7.4L11.24 1.28V4.12C11.24 4.22667 11.28 4.31333 11.36 4.38C11.44 4.44667 11.5333 4.48 11.64 4.48C11.7467 4.48 11.8333 4.44667 11.9 4.38C11.9667 4.31333 12 4.22667 12 4.12V0.360001Z" fill="white"/>
</svg>
