<svg width="132" height="15" viewBox="0 0 132 15" fill="none" xmlns="http://www.w3.org/2000/svg">
<path d="M0 11.5656V0.321245H1.28507L5.95956 8.01562H5.12423L9.79868 0.321245H11.0837V11.5656H9.23647V3.56608L9.65413 3.67852L6.18444 9.38102H4.89934L1.42965 3.67852L1.84729 3.56608V11.5656H0ZM16.981 11.7263C16.21 11.7263 15.5132 11.5546 14.8928 11.2123C14.2824 10.8589 13.7944 10.377 13.431 9.76654C13.0776 9.15614 12.9009 8.47042 12.9009 7.71043C12.9009 6.95043 13.0776 6.26973 13.431 5.67036C13.7844 5.05995 14.2603 4.57805 14.8607 4.22465C15.4711 3.87126 16.1457 3.69457 16.8846 3.69457C17.6015 3.69457 18.234 3.86023 18.7801 4.19254C19.3363 4.52485 19.77 4.97963 20.0813 5.55792C20.4025 6.1362 20.5632 6.79482 20.5632 7.53373C20.5632 7.66224 20.5521 7.79576 20.531 7.93531C20.52 8.06382 20.4989 8.2084 20.4668 8.36903H14.1378V6.92332H19.5512L18.8926 7.50159C18.8705 7.03073 18.7801 6.63418 18.6195 6.31291C18.4589 5.99164 18.228 5.74568 17.9288 5.574C17.6397 5.40232 17.2802 5.31698 16.8525 5.31698C16.4028 5.31698 16.0112 5.41335 15.6799 5.60611C15.3476 5.79887 15.0905 6.07196 14.9088 6.42535C14.7261 6.76771 14.6358 7.18033 14.6358 7.66223C14.6358 8.14413 14.7322 8.56681 14.9249 8.93125C15.1177 9.29569 15.3908 9.57879 15.7441 9.7826C16.0975 9.97536 16.5042 10.0717 16.965 10.0717C17.3605 10.0717 17.725 10.0025 18.0573 9.8629C18.3996 9.72335 18.6887 9.52058 18.9247 9.25252L20.0492 10.393C19.6737 10.8317 19.2188 11.1641 18.6837 11.3889C18.1476 11.6138 17.5804 11.7263 16.981 11.7263ZM22.0962 11.5656V3.85521H23.8632V11.5656H22.0962ZM27.2204 11.5656V6.97152C27.2204 6.45749 27.0598 6.0609 26.7385 5.7828C26.4173 5.49366 26.0217 5.34912 25.5498 5.34912C25.2286 5.34912 24.9395 5.41336 24.6824 5.54186C24.4365 5.67037 24.2386 5.85811 24.0881 6.10408C23.9385 6.34001 23.8632 6.62917 23.8632 6.97152L23.1725 6.58599C23.1725 5.99667 23.301 5.48864 23.558 5.05995C23.815 4.63126 24.1634 4.29998 24.6021 4.06404C25.0418 3.81807 25.5338 3.69457 26.0799 3.69457C26.6261 3.69457 27.119 3.81203 27.5577 4.04796C27.9975 4.28389 28.3449 4.6152 28.6019 5.04389C28.8589 5.47259 28.9874 5.98663 28.9874 6.58599V11.5656H27.2204ZM32.3446 11.5656V6.97152C32.3446 6.45749 32.184 6.0609 31.8628 5.7828C31.5415 5.49366 31.1459 5.34912 30.674 5.34912C30.3638 5.34912 30.0797 5.41336 29.8227 5.54186C29.5657 5.67037 29.3629 5.85811 29.2123 6.10408C29.0627 6.34001 28.9874 6.62917 28.9874 6.97152L27.9915 6.58599C28.0457 5.99667 28.2164 5.48864 28.5055 5.05995C28.7947 4.63126 29.1641 4.29998 29.6139 4.06404C30.0747 3.81807 30.5777 3.69457 31.1238 3.69457C31.681 3.69457 32.184 3.81203 32.6338 4.04796C33.0836 4.28389 33.443 4.6152 33.7101 5.04389C33.9781 5.47259 34.1116 5.98663 34.1116 6.58599V11.5656H32.3446ZM39.6324 11.7263C38.8614 11.7263 38.1646 11.5546 37.5442 11.2123C36.9338 10.8589 36.4459 10.377 36.0824 9.76654C35.729 9.15614 35.5523 8.47042 35.5523 7.71043C35.5523 6.95043 35.729 6.26973 36.0824 5.67036C36.4358 5.05995 36.9117 4.57805 37.5121 4.22465C38.1225 3.87126 38.7971 3.69457 39.5361 3.69457C40.2529 3.69457 40.8854 3.86023 41.4315 4.19254C41.9877 4.52485 42.4215 4.97963 42.7327 5.55792C43.054 6.1362 43.2146 6.79482 43.2146 7.53373C43.2146 7.66224 43.2035 7.79576 43.1825 7.93531C43.1714 8.06382 43.1503 8.2084 43.1182 8.36903H36.7892V6.92332H42.2026L41.544 7.50159C41.5219 7.03073 41.4316 6.63418 41.2709 6.31291C41.1103 5.99164 40.8793 5.74568 40.5802 5.574C40.291 5.40232 39.9316 5.31698 39.5039 5.31698C39.0542 5.31698 38.6626 5.41335 38.3313 5.60611C37.999 5.79887 37.742 6.07196 37.5602 6.42535C37.3775 6.76771 37.2872 7.18033 37.2872 7.66223C37.2872 8.14413 37.3835 8.56681 37.5763 8.93125C37.7691 9.29569 38.0422 9.57879 38.3956 9.7826C38.749 9.97536 39.1556 10.0717 39.6164 10.0717C40.0119 10.0717 40.3764 10.0025 40.7087 9.8629C41.0511 9.72335 41.3402 9.52058 41.5761 9.25252L42.7005 10.393C42.325 10.8317 41.8703 11.1641 41.3351 11.3889C40.799 11.6138 40.2318 11.7263 39.6324 11.7263ZM48.2987 11.7263C47.5377 11.7263 46.8469 11.5496 46.2265 11.1962C45.616 10.8428 45.1341 10.3609 44.7808 9.75046C44.4274 9.14005 44.2506 8.46039 44.2506 7.71043C44.2506 6.95043 44.4274 6.26973 44.7808 5.67036C45.1341 5.05995 45.616 4.57805 46.2265 4.22465C46.8469 3.87126 47.5377 3.69457 48.2987 3.69457C48.898 3.69457 49.4552 3.81203 49.9693 4.04796C50.4933 4.27285 50.938 4.59915 51.3025 5.02784L50.1459 6.20047C49.921 5.93241 49.648 5.73462 49.3267 5.60611C49.0155 5.46656 48.6731 5.39728 48.2987 5.39728C47.8589 5.39728 47.4684 5.4987 47.126 5.7025C46.7937 5.89526 46.5317 6.16331 46.3389 6.50566C46.1562 6.84801 46.0659 7.24961 46.0659 7.71043C46.0659 8.1602 46.1562 8.56177 46.3389 8.91516C46.5317 9.25751 46.7937 9.5306 47.126 9.73441C47.4684 9.92717 47.8589 10.0235 48.2987 10.0235C48.6731 10.0235 49.0155 9.9593 49.3267 9.83079C49.648 9.69124 49.921 9.48844 50.1459 9.22038L51.3025 10.393C50.938 10.8217 50.4933 11.153 49.9693 11.3889C49.4552 11.6138 48.898 11.7263 48.2987 11.7263ZM56.0703 11.7263C55.3203 11.7263 54.6407 11.5496 54.0303 11.1962C53.4199 10.8317 52.9329 10.3448 52.5685 9.73441C52.2151 9.124 52.0384 8.44433 52.0384 7.69437C52.0384 6.94441 52.2151 6.26973 52.5685 5.67036C52.9329 5.07099 53.4199 4.59413 54.0303 4.24074C54.6407 3.8763 55.3203 3.69457 56.0703 3.69457C56.8303 3.69457 57.516 3.87126 58.1265 4.22465C58.7369 4.57805 59.2187 5.05995 59.5721 5.67036C59.9365 6.26973 60.1183 6.94441 60.1183 7.69437C60.1183 8.44433 59.9365 9.124 59.5721 9.73441C59.2187 10.3448 58.7369 10.8317 58.1265 11.1962C57.516 11.5496 56.8303 11.7263 56.0703 11.7263ZM56.0703 10.0235C56.509 10.0235 56.8945 9.92717 57.2268 9.73441C57.5692 9.5306 57.8323 9.2525 58.014 8.89911C58.2068 8.54571 58.3031 8.14415 58.3031 7.69437C58.3031 7.2446 58.2068 6.84801 58.014 6.50566C57.8212 6.16331 57.5592 5.89526 57.2268 5.7025C56.8945 5.4987 56.509 5.39728 56.0703 5.39728C55.6416 5.39728 55.2561 5.4987 54.9138 5.7025C54.5814 5.89526 54.3194 6.16331 54.1267 6.50566C53.9449 6.84801 53.8535 7.2446 53.8535 7.69437C53.8535 8.14415 53.9449 8.54571 54.1267 8.89911C54.3194 9.2525 54.5814 9.5306 54.9138 9.73441C55.2561 9.92717 55.6416 10.0235 56.0703 10.0235ZM61.7216 11.5656V3.85521H63.4886V11.5656H61.7216ZM62.6051 2.44161C62.3049 2.44161 62.0529 2.34023 61.8501 2.13642C61.6574 1.93262 61.561 1.68161 61.561 1.38143C61.561 1.08124 61.6574 0.83027 61.8501 0.626466C62.0529 0.422661 62.3049 0.321245 62.6051 0.321245C62.9154 0.321245 63.1673 0.422661 63.3601 0.626466C63.5528 0.83027 63.6492 1.08124 63.6492 1.38143C63.6492 1.68161 63.5528 1.93262 63.3601 2.13642C63.1673 2.34023 62.9154 2.44161 62.6051 2.44161ZM70.8727 11.5656V7.11607C70.8727 6.60204 70.7061 6.17936 70.3747 5.84705C70.0535 5.51474 69.6358 5.34912 69.1218 5.34912C68.7785 5.34912 68.4733 5.42441 68.2062 5.574C67.9382 5.72359 67.7293 5.93241 67.5797 6.20047C67.4291 6.46853 67.3548 6.77372 67.3548 7.11607L66.6641 6.73054C66.6641 6.14122 66.7927 5.62217 67.0497 5.17239C67.3067 4.71157 67.6601 4.35317 68.1098 4.09615C68.5696 3.8281 69.0837 3.69457 69.6519 3.69457C70.2302 3.69457 70.7443 3.84416 71.194 4.14435C71.6438 4.43349 71.9972 4.81398 72.2542 5.28484C72.5112 5.74565 72.6397 6.22756 72.6397 6.73054V11.5656H70.8727ZM65.5879 11.5656V3.85521H67.3548V11.5656H65.5879ZM76.8363 11.5656L81.4625 0.321245H82.7476L87.3417 11.5656H85.3499L81.7517 2.4577H82.4263L78.796 11.5656H76.8363ZM79.1173 9.39708V7.79073H85.0768V9.39708H79.1173ZM88.8436 11.5656V3.85521H90.6106V11.5656H88.8436ZM89.7271 2.44161C89.4269 2.44161 89.175 2.34023 88.9722 2.13642C88.7794 1.93262 88.683 1.68161 88.683 1.38143C88.683 1.08124 88.7794 0.83027 88.9722 0.626466C89.175 0.422661 89.4269 0.321245 89.7271 0.321245C90.0374 0.321245 90.2894 0.422661 90.4821 0.626466C90.6749 0.83027 90.7713 1.08124 90.7713 1.38143C90.7713 1.68161 90.6749 1.93262 90.4821 2.13642C90.2894 2.34023 90.0374 2.44161 89.7271 2.44161ZM92.7099 11.5656V3.85521H94.4769V11.5656H92.7099ZM94.4769 7.27671L93.8665 6.97152C93.8665 5.99667 94.0803 5.20954 94.509 4.61018C94.9477 3.99977 95.6064 3.69457 96.4848 3.69457C96.8703 3.69457 97.2177 3.76386 97.5289 3.90341C97.8391 4.04296 98.1283 4.26784 98.3964 4.57807L97.2398 5.76675C97.1003 5.61716 96.9447 5.50973 96.774 5.44547C96.6023 5.38122 96.4045 5.34912 96.1796 5.34912C95.6867 5.34912 95.28 5.50472 94.9588 5.81494C94.6375 6.12517 94.4769 6.61309 94.4769 7.27671ZM102.362 11.7263C101.666 11.7263 101.034 11.5496 100.467 11.1962C99.9093 10.8428 99.4656 10.3659 99.1333 9.76654C98.812 9.15614 98.6514 8.47644 98.6514 7.72648C98.6514 6.96648 98.812 6.28581 99.1333 5.68645C99.4656 5.07604 99.9093 4.59413 100.467 4.24074C101.034 3.8763 101.666 3.69457 102.362 3.69457C102.951 3.69457 103.47 3.82308 103.92 4.0801C104.381 4.32607 104.744 4.66941 105.013 5.10814C105.281 5.54688 105.414 6.04485 105.414 6.60205V8.8188C105.414 9.376 105.281 9.87397 105.013 10.3127C104.755 10.7514 104.397 11.0998 103.936 11.3568C103.475 11.6028 102.951 11.7263 102.362 11.7263ZM102.651 10.0557C103.09 10.0557 103.47 9.95931 103.792 9.76654C104.124 9.56274 104.381 9.28464 104.563 8.93125C104.744 8.57785 104.836 8.17124 104.836 7.71043C104.836 7.24961 104.744 6.843 104.563 6.4896C104.381 6.13621 104.124 5.86312 103.792 5.67036C103.47 5.46656 103.09 5.36517 102.651 5.36517C102.222 5.36517 101.843 5.46656 101.511 5.67036C101.189 5.86312 100.932 6.13621 100.74 6.4896C100.558 6.843 100.467 7.24961 100.467 7.71043C100.467 8.17124 100.558 8.57785 100.74 8.93125C100.932 9.28464 101.189 9.56274 101.511 9.76654C101.843 9.95931 102.222 10.0557 102.651 10.0557ZM106.49 11.5656H104.723V9.49346L105.029 7.61404L104.723 5.75069V0H106.49V11.5656ZM108.569 11.5656V3.85521H110.336V11.5656H108.569ZM110.336 7.27671L109.725 6.97152C109.725 5.99667 109.939 5.20954 110.368 4.61018C110.806 3.99977 111.465 3.69457 112.343 3.69457C112.729 3.69457 113.077 3.76386 113.388 3.90341C113.698 4.04296 113.987 4.26784 114.255 4.57807L113.098 5.76675C112.959 5.61716 112.804 5.50973 112.633 5.44547C112.461 5.38122 112.263 5.34912 112.038 5.34912C111.545 5.34912 111.139 5.50472 110.817 5.81494C110.496 6.12517 110.336 6.61309 110.336 7.27671ZM118.526 11.7263C117.777 11.7263 117.096 11.5496 116.486 11.1962C115.875 10.8317 115.388 10.3448 115.024 9.73441C114.671 9.124 114.494 8.44433 114.494 7.69437C114.494 6.94441 114.671 6.26973 115.024 5.67036C115.388 5.07099 115.875 4.59413 116.486 4.24074C117.096 3.8763 117.777 3.69457 118.526 3.69457C119.287 3.69457 119.972 3.87126 120.582 4.22465C121.192 4.57805 121.674 5.05995 122.028 5.67036C122.392 6.26973 122.574 6.94441 122.574 7.69437C122.574 8.44433 122.392 9.124 122.028 9.73441C121.674 10.3448 121.192 10.8317 120.582 11.1962C119.972 11.5496 119.287 11.7263 118.526 11.7263ZM118.526 10.0235C118.966 10.0235 119.351 9.92717 119.682 9.73441C120.026 9.5306 120.288 9.2525 120.47 8.89911C120.662 8.54571 120.759 8.14415 120.759 7.69437C120.759 7.2446 120.662 6.84801 120.47 6.50566C120.277 6.16331 120.015 5.89526 119.682 5.7025C119.351 5.4987 118.966 5.39728 118.526 5.39728C118.098 5.39728 117.713 5.4987 117.369 5.7025C117.038 5.89526 116.775 6.16331 116.582 6.50566C116.4 6.84801 116.309 7.2446 116.309 7.69437C116.309 8.14415 116.4 8.54571 116.582 8.89911C116.775 9.2525 117.038 9.5306 117.369 9.73441C117.713 9.92717 118.098 10.0235 118.526 10.0235ZM128.289 11.7263C127.7 11.7263 127.176 11.6028 126.715 11.3568C126.254 11.0998 125.891 10.7514 125.623 10.3127C125.366 9.87397 125.237 9.376 125.237 8.8188V6.60205C125.237 6.04485 125.371 5.54688 125.639 5.10814C125.907 4.66941 126.27 4.32607 126.731 4.0801C127.192 3.82308 127.711 3.69457 128.289 3.69457C128.985 3.69457 129.612 3.8763 130.169 4.24074C130.736 4.59413 131.181 5.07604 131.502 5.68645C131.834 6.28581 132 6.96648 132 7.72648C132 8.47644 131.834 9.15614 131.502 9.76654C131.181 10.3659 130.736 10.8428 130.169 11.1962C129.612 11.5496 128.985 11.7263 128.289 11.7263ZM128 10.0557C128.429 10.0557 128.803 9.95931 129.125 9.76654C129.457 9.56274 129.714 9.28464 129.896 8.93125C130.088 8.57785 130.185 8.17124 130.185 7.71043C130.185 7.24961 130.088 6.843 129.896 6.4896C129.714 6.13621 129.457 5.86312 129.125 5.67036C128.803 5.46656 128.429 5.36517 128 5.36517C127.572 5.36517 127.192 5.46656 126.86 5.67036C126.527 5.86312 126.27 6.13621 126.089 6.4896C125.907 6.843 125.816 7.24961 125.816 7.71043C125.816 8.17124 125.907 8.57785 126.089 8.93125C126.27 9.28464 126.527 9.56274 126.86 9.76654C127.192 9.95931 127.572 10.0557 128 10.0557ZM124.161 14.7783V3.85521H125.928V5.92739L125.623 7.80681L125.928 9.67016V14.7783H124.161Z" fill="white" fill-opacity="0.2"/>
</svg>
