<svg width="64" height="18" viewBox="0 0 64 18" fill="none" xmlns="http://www.w3.org/2000/svg">
<path d="M2.83004 14.3523V0.202157H5.11429V14.3523H2.83004ZM0 2.28424V0.202157H4.91213V2.28424H0ZM13.4284 14.5544C12.3642 14.5544 11.3868 14.2583 10.4974 13.665C9.6221 13.0586 8.92064 12.2095 8.39506 11.118C7.86949 10.0264 7.60673 8.73974 7.60673 7.25701C7.60673 5.77428 7.8634 4.49469 8.37483 3.41625C8.90041 2.32467 9.60186 1.48274 10.4772 0.889441C11.3534 0.296147 12.3237 0 13.388 0C14.4665 0 15.4439 0.296147 16.3192 0.889441C17.1955 1.48274 17.8898 2.32467 18.4012 3.41625C18.9268 4.49469 19.1896 5.78135 19.1896 7.27722C19.1896 8.75995 18.9268 10.0466 18.4012 11.1382C17.8898 12.2298 17.1955 13.0717 16.3192 13.665C15.457 14.2583 14.4937 14.5544 13.4284 14.5544ZM13.388 12.3713C14.0895 12.3713 14.6959 12.1823 15.2073 11.8053C15.7198 11.4283 16.117 10.8622 16.4 10.1072C16.6971 9.35222 16.8447 8.40216 16.8447 7.25701C16.8447 6.125 16.6971 5.18198 16.4 4.42697C16.117 3.67196 15.7127 3.11303 15.1872 2.74917C14.6757 2.37217 14.0753 2.18317 13.388 2.18317C12.7007 2.18317 12.0943 2.37217 11.5687 2.74917C11.0573 3.11303 10.6591 3.67196 10.3761 4.42697C10.0931 5.16783 9.95162 6.11186 9.95162 7.25701C9.95162 8.40216 10.0931 9.35222 10.3761 10.1072C10.6591 10.8622 11.0573 11.4283 11.5687 11.8053C12.0943 12.1823 12.7007 12.3713 13.388 12.3713ZM20.8815 16.7174L22.2561 14.1501L23.0041 13.948C22.9232 14.1097 22.8292 14.2441 22.7211 14.3523C22.6139 14.4604 22.4856 14.514 22.337 14.514C22.0277 14.514 21.7376 14.3856 21.4678 14.1299C21.2121 13.8601 21.0837 13.5235 21.0837 13.1192C21.0837 12.6876 21.2252 12.3238 21.5082 12.0276C21.8053 11.7173 22.1692 11.5627 22.5998 11.5627C23.0041 11.5627 23.3548 11.7173 23.6509 12.0276C23.9612 12.3238 24.1159 12.6876 24.1159 13.1192C24.1159 13.294 24.0754 13.5033 23.9946 13.7458C23.9279 13.9753 23.7995 14.2714 23.6105 14.6353L22.1147 17.3844L20.8815 16.7174ZM31.5103 14.5544C30.446 14.5544 29.4687 14.2583 28.5792 13.665C27.7039 13.0586 27.0025 12.2095 26.4769 11.118C25.9513 10.0264 25.6885 8.73974 25.6885 7.25701C25.6885 5.77428 25.9453 4.49469 26.4567 3.41625C26.9823 2.32467 27.6837 1.48274 28.559 0.889441C29.4353 0.296147 30.4056 0 31.4699 0C32.5483 0 33.5257 0.296147 34.4009 0.889441C35.2772 1.48274 35.9717 2.32467 36.4831 3.41625C37.0087 4.49469 37.2714 5.78135 37.2714 7.27722C37.2714 8.75995 37.0087 10.0466 36.4831 11.1382C35.9717 12.2298 35.2772 13.0717 34.4009 13.665C33.5388 14.2583 32.5756 14.5544 31.5103 14.5544ZM31.4699 12.3713C32.1713 12.3713 32.7777 12.1823 33.2892 11.8053C33.8016 11.4283 34.1988 10.8622 34.4818 10.1072C34.779 9.35222 34.9265 8.40216 34.9265 7.25701C34.9265 6.125 34.779 5.18198 34.4818 4.42697C34.1988 3.67196 33.7945 3.11303 33.2689 2.74917C32.7575 2.37217 32.1572 2.18317 31.4699 2.18317C30.7826 2.18317 30.1762 2.37217 29.6506 2.74917C29.1392 3.11303 28.741 3.67196 28.458 4.42697C28.1749 5.16783 28.0334 6.11186 28.0334 7.25701C28.0334 8.40216 28.1749 9.35222 28.458 10.1072C28.741 10.8622 29.1392 11.4283 29.6506 11.8053C30.1762 12.1823 30.7826 12.3713 31.4699 12.3713ZM44.8751 14.5544C43.8108 14.5544 42.8334 14.2583 41.944 13.665C41.0677 13.0586 40.3673 12.2095 39.8417 11.118C39.3161 10.0264 39.0533 8.73974 39.0533 7.25701C39.0533 5.77428 39.3091 4.49469 39.8215 3.41625C40.3471 2.32467 41.0475 1.48274 41.9238 0.889441C42.8001 0.296147 43.7704 0 44.8347 0C45.9131 0 46.8895 0.296147 47.7658 0.889441C48.6421 1.48274 49.3354 2.32467 49.8478 3.41625C50.3734 4.49469 50.6362 5.78135 50.6362 7.27722C50.6362 8.75995 50.3734 10.0466 49.8478 11.1382C49.3354 12.2298 48.6421 13.0717 47.7658 13.665C46.9036 14.2583 45.9394 14.5544 44.8751 14.5544ZM44.8347 12.3713C45.5351 12.3713 46.1415 12.1823 46.654 11.8053C47.1664 11.4283 47.5636 10.8622 47.8466 10.1072C48.1428 9.35222 48.2914 8.40216 48.2914 7.25701C48.2914 6.125 48.1428 5.18198 47.8466 4.42697C47.5636 3.67196 47.1593 3.11303 46.6338 2.74917C46.1213 2.37217 45.522 2.18317 44.8347 2.18317C44.1474 2.18317 43.5409 2.37217 43.0153 2.74917C42.5029 3.11303 42.1057 3.67196 41.8227 4.42697C41.5397 5.16783 41.3982 6.11186 41.3982 7.25701C41.3982 8.40216 41.5397 9.35222 41.8227 10.1072C42.1057 10.8622 42.5029 11.4283 43.0153 11.8053C43.5409 12.1823 44.1474 12.3713 44.8347 12.3713ZM58.2389 14.5544C57.1746 14.5544 56.1972 14.2583 55.3078 13.665C54.4325 13.0586 53.7311 12.2095 53.2055 11.118C52.6799 10.0264 52.4171 8.73974 52.4171 7.25701C52.4171 5.77428 52.6738 4.49469 53.1853 3.41625C53.7108 2.32467 54.4123 1.48274 55.2876 0.889441C56.1639 0.296147 57.1342 0 58.1985 0C59.2769 0 60.2542 0.296147 61.1295 0.889441C62.0058 1.48274 62.7002 2.32467 63.2116 3.41625C63.7372 4.49469 64 5.78135 64 7.27722C64 8.75995 63.7372 10.0466 63.2116 11.1382C62.7002 12.2298 62.0058 13.0717 61.1295 13.665C60.2674 14.2583 59.3042 14.5544 58.2389 14.5544ZM58.1985 12.3713C58.8999 12.3713 59.5063 12.1823 60.0177 11.8053C60.5302 11.4283 60.9274 10.8622 61.2104 10.1072C61.5075 9.35222 61.6551 8.40216 61.6551 7.25701C61.6551 6.125 61.5075 5.18198 61.2104 4.42697C60.9274 3.67196 60.5231 3.11303 59.9975 2.74917C59.4861 2.37217 58.8858 2.18317 58.1985 2.18317C57.5112 2.18317 56.9047 2.37217 56.3792 2.74917C55.8677 3.11303 55.4695 3.67196 55.1865 4.42697C54.9035 5.16783 54.762 6.11186 54.762 7.25701C54.762 8.40216 54.9035 9.35222 55.1865 10.1072C55.4695 10.8622 55.8677 11.4283 56.3792 11.8053C56.9047 12.1823 57.5112 12.3713 58.1985 12.3713Z" fill="white" fill-opacity="0.6"/>
</svg>
