<svg width="20" height="20" viewBox="0 0 20 20" fill="none" xmlns="http://www.w3.org/2000/svg">
<g opacity="0.5">
<path d="M5.79998 5.80002C5.93331 5.66669 6.08886 5.60002 6.26664 5.60002C6.44442 5.60002 6.57775 5.66669 6.66664 5.80002L9.99998 9.13336L13.3333 5.80002C13.4222 5.66669 13.5555 5.60002 13.7333 5.60002C13.9111 5.60002 14.0666 5.66669 14.2 5.80002C14.3333 5.93336 14.4 6.08891 14.4 6.26669C14.4 6.44447 14.3333 6.5778 14.2 6.66669L10.8666 10L14.2 13.3334C14.3333 13.4222 14.4 13.5556 14.4 13.7334C14.4 13.9111 14.3333 14.0667 14.2 14.2C14.0666 14.3334 13.9111 14.4 13.7333 14.4C13.5555 14.4 13.4222 14.3334 13.3333 14.2L9.99998 10.8667L6.66664 14.2C6.57775 14.3334 6.44442 14.4 6.26664 14.4C6.08886 14.4 5.93331 14.3334 5.79998 14.2C5.66664 14.0667 5.59998 13.9111 5.59998 13.7334C5.59998 13.5556 5.66664 13.4222 5.79998 13.3334L9.13331 10L5.79998 6.66669C5.66664 6.5778 5.59998 6.44447 5.59998 6.26669C5.59998 6.08891 5.66664 5.93336 5.79998 5.80002Z" fill="white"/>
</g>
</svg>
