<svg width="17" height="17" viewBox="0 0 17 17" fill="none" xmlns="http://www.w3.org/2000/svg">
<path d="M0 12.75C0 15.0922 1.90778 17 4.25 17H12.75C15.0922 17 17 15.0922 17 12.75V5.19444H0V12.75ZM6.13889 8.5C6.13889 8.33472 6.22861 8.17889 6.37028 8.09389C6.51667 8.00889 6.69611 8.00417 6.8425 8.08917L11.0925 10.4503C11.2389 10.5306 11.3333 10.6911 11.3333 10.8611C11.3333 11.0311 11.2389 11.1917 11.0925 11.2719L6.8425 13.6331C6.76694 13.6756 6.69148 13.6944 6.61111 13.6944C6.52611 13.6944 6.44583 13.6708 6.37028 13.6283C6.22861 13.5433 6.13889 13.3875 6.13889 13.2222V8.5ZM17 4.25C17 1.90778 15.0922 0 12.75 0H10.1669L13.0003 4.25H17ZM11.8717 4.25L9.03361 0H4.25C4.17444 0 4.10361 1.08189e-07 4.03278 0.00472233L6.86139 4.25H11.8717ZM3.02222 0.184167C1.275 0.708333 0 2.33278 0 4.25H5.73278L3.02222 0.184167Z" fill="white" fill-opacity="0.6"/>
</svg>
